<svg id="visual" viewBox="0 0 900 600" width="900" height="600" xmlns="http://www.w3.org/2000/svg" xmlns:xlink="http://www.w3.org/1999/xlink" version="1.1"><g transform="translate(449.3580314185963 268.73421606786354)"><path d="M90.1 -147.9C112.9 -125.6 124.7 -94 156.3 -60.8C188 -27.6 239.5 7.1 244 41.1C248.4 75 205.8 108.2 165.3 128.3C124.7 148.4 86.2 155.3 44.9 179.7C3.6 204.1 -40.5 246 -74.1 241.2C-107.7 236.4 -131 185 -162.4 143.6C-193.8 102.2 -233.5 70.7 -241.5 33.1C-249.4 -4.6 -225.7 -48.4 -193.7 -76C-161.7 -103.5 -121.4 -114.9 -87.7 -132.2C-54.1 -149.5 -27 -172.7 3.3 -177.9C33.7 -183.1 67.4 -170.2 90.1 -147.9" fill="#BB004B"></path></g></svg>