<?xml version="1.0" encoding="UTF-8" standalone="no"?><!DOCTYPE svg PUBLIC "-//W3C//DTD SVG 1.1//EN" "http://www.w3.org/Graphics/SVG/1.1/DTD/svg11.dtd"><svg width="100%" height="100%" viewBox="0 0 1792 594" version="1.1" xmlns="http://www.w3.org/2000/svg" xmlns:xlink="http://www.w3.org/1999/xlink" xml:space="preserve" xmlns:serif="http://www.serif.com/" style="fill-rule:evenodd;clip-rule:evenodd;stroke-linejoin:round;stroke-miterlimit:2;"><g><path d="M874.542,414.625l22.75,0l-0,14.417c-2.882,2.343 -6.135,4.187 -9.625,5.458c-4.127,1.685 -8.543,2.548 -13,2.542c-5.017,0.018 -9.969,-1.138 -14.459,-3.375c-4.489,-2.225 -8.132,-5.854 -10.375,-10.334c-2.532,-5.417 -3.746,-11.357 -3.541,-17.333c-0.046,-5.325 0.96,-10.606 2.958,-15.542c1.163,-2.821 2.813,-5.416 4.875,-7.666c2.309,-2.49 5.161,-4.415 8.333,-5.625c3.852,-1.541 7.978,-2.278 12.125,-2.167c3.656,-0.031 7.281,0.663 10.667,2.042c2.883,1.141 5.423,3.007 7.375,5.416c1.937,2.821 3.349,5.969 4.167,9.292l9.25,-2.5c-1.045,-4.601 -3.047,-8.931 -5.875,-12.708c-2.805,-3.418 -6.474,-6.022 -10.625,-7.542c-4.844,-1.891 -10.009,-2.825 -15.209,-2.75c-7.094,-0.143 -14.113,1.49 -20.416,4.75c-5.994,3.232 -10.767,8.342 -13.584,14.542c-3.159,6.575 -4.77,13.788 -4.708,21.083c-0.131,7.227 1.5,14.378 4.75,20.833c3.08,6.066 7.994,11.01 14.042,14.125c6.437,3.313 13.594,4.988 20.833,4.875c5.626,0.005 11.206,-1.026 16.458,-3.041c5.617,-2.193 10.86,-5.243 15.542,-9.042l-0,-28.708l-32.75,-0l0.042,8.958Z" style="fill:#11518c;"/><path d="M1511.21,434.875c-2.558,2.291 -5.9,3.515 -9.333,3.417c-4.343,0.133 -8.513,-1.744 -11.292,-5.084c-3.227,-4.848 -4.698,-10.658 -4.166,-16.458c-0.496,-5.779 1.102,-11.549 4.5,-16.25c2.891,-3.415 7.195,-5.321 11.666,-5.167c2.949,-0.07 5.824,0.938 8.084,2.834c2.444,2.262 4.083,5.262 4.666,8.541l9.25,-1.458c-0.792,-5.13 -3.43,-9.799 -7.416,-13.125c-4.306,-3.215 -9.59,-4.849 -14.959,-4.625c-4.677,-0.026 -9.283,1.151 -13.375,3.417c-4.119,2.269 -7.351,5.869 -9.166,10.208c-2.118,5.033 -3.14,10.459 -3,15.917c-0.513,7.802 1.978,15.513 6.958,21.541c4.789,5.056 11.543,7.794 18.5,7.5c5.667,0.192 11.203,-1.758 15.5,-5.458c4.359,-3.911 7.158,-9.271 7.875,-15.083l-9.333,-1.209c-0.315,3.966 -2.011,7.698 -4.792,10.542l-0.167,0Z" style="fill:#11518c;"/><path d="M1185.25,418.833c0.146,3.716 -0.376,7.428 -1.542,10.959c-1.077,2.516 -2.951,4.61 -5.333,5.958c-2.417,1.448 -5.183,2.211 -8,2.208c-2.572,0.067 -5.099,-0.693 -7.208,-2.166c-1.935,-1.451 -3.282,-3.553 -3.792,-5.917c-0.472,-3.311 -0.653,-6.657 -0.542,-10l0,-31.083l-9.541,-0l-0,34.708c-0.074,2.97 0.121,5.94 0.583,8.875c0.449,2.544 1.444,4.961 2.917,7.083c1.692,2.111 3.903,3.748 6.416,4.75c2.919,1.264 6.07,1.903 9.25,1.875c7.17,0.181 13.931,-3.414 17.792,-9.458l0,8.333l8.333,0l0,-56.208l-9.5,-0l0.167,30.083Z" style="fill:#11518c;"/><path d="M614.833,418.792c0.167,3.716 -0.356,7.432 -1.541,10.958c-1.078,2.516 -2.952,4.61 -5.334,5.958c-2.431,1.449 -5.211,2.213 -8.041,2.209c-2.56,0.069 -5.075,-0.691 -7.167,-2.167c-1.949,-1.437 -3.3,-3.545 -3.792,-5.917c-0.492,-3.309 -0.688,-6.656 -0.583,-10l0,-31.083l-9.5,0l0,34.708c-0.074,2.97 0.121,5.941 0.583,8.875c0.449,2.544 1.444,4.961 2.917,7.084c1.693,2.11 3.904,3.747 6.417,4.75c2.92,1.259 6.07,1.897 9.25,1.875c7.169,0.18 13.931,-3.415 17.791,-9.459l0,8.334l8.334,-0l-0,-56.167l-9.334,-0l0,30.042Z" style="fill:#11518c;"/><path d="M1381.96,436.792c-1.123,0.072 -2.246,-0.158 -3.25,-0.667c-0.719,-0.445 -1.286,-1.1 -1.625,-1.875c-0.444,-1.698 -0.613,-3.457 -0.5,-5.208l0,-32.792l9.584,0l-0,-7.375l-9.584,0l0,-19.583l-9.458,5.666l0,13.917l-6.958,0l-0,7.375l6.958,0l0,32.25c-0.25,3.775 0.145,7.566 1.167,11.208c0.884,1.815 2.351,3.283 4.166,4.167c2.489,1.248 5.262,1.822 8.042,1.667c2.41,-0.043 4.811,-0.322 7.167,-0.834l-1.334,-8.333c-1.379,0.217 -2.771,0.343 -4.166,0.375l-0.209,0.042Z" style="fill:#11518c;"/><path d="M1769.67,388.833l-12.5,0l-22.459,22.792l0,-44.042l-9.5,0l0,77.375l9.5,0l0,-22.375l6.709,-6.458l18.541,28.667l11.542,-0l-23.583,-35.25l21.75,-20.709Z" style="fill:#11518c;"/><path d="M1582.46,389.958c-3.34,-1.693 -7.047,-2.538 -10.791,-2.458c-6.43,-0.075 -12.561,2.76 -16.667,7.708l0,-27.625l-9.5,0l0,77.375l9.333,0l0,-30.666c-0.14,-3.514 0.398,-7.023 1.584,-10.334c1.077,-2.516 2.951,-4.61 5.333,-5.958c2.407,-1.43 5.159,-2.179 7.958,-2.167c3.23,-0.195 6.397,0.987 8.709,3.25c2.302,2.927 3.405,6.624 3.083,10.334l-0,35.541l9.542,0l-0,-35.708c0.181,-4.259 -0.499,-8.511 -2,-12.5c-1.379,-2.932 -3.696,-5.322 -6.584,-6.792Z" style="fill:#11518c;"/><path d="M693.125,394.125c-1.635,-2.161 -3.844,-3.822 -6.375,-4.792c-2.955,-1.237 -6.13,-1.861 -9.333,-1.833c-7.158,-0.307 -13.962,3.222 -17.834,9.25l0,-7.958l-8.333,-0l-0,56.041l9.5,0l-0,-30.583c-0,-7.208 1.458,-12.083 4.417,-14.667c2.885,-2.535 6.617,-3.903 10.458,-3.833c2.336,-0.044 4.64,0.547 6.667,1.708c1.768,1.062 3.143,2.671 3.916,4.584c0.843,2.822 1.209,5.765 1.084,8.708l-0,34.083l9.208,0l-0,-34.458c0.081,-3.092 -0.086,-6.185 -0.5,-9.25c-0.486,-2.514 -1.494,-4.899 -2.958,-7l0.083,0Z" style="fill:#11518c;"/><path d="M459.292,394.292c-1.61,-2.17 -3.808,-3.833 -6.334,-4.792c-2.955,-1.234 -6.13,-1.858 -9.333,-1.833c-7.172,-0.406 -14.035,3.066 -17.958,9.083l-0,-7.958l-8.334,-0l0,56.041l9.5,0l0,-30.583c0,-7.208 1.459,-12.083 4.417,-14.667c2.886,-2.535 6.617,-3.903 10.458,-3.833c2.324,-0.058 4.619,0.534 6.625,1.708c1.779,1.05 3.157,2.663 3.917,4.584c0.882,2.814 1.262,5.762 1.125,8.708l0,34.083l9.5,0l0,-34.458c0.096,-3.093 -0.086,-6.189 -0.542,-9.25c-0.468,-2.52 -1.477,-4.908 -2.958,-7l-0.083,0.167Z" style="fill:#11518c;"/><path d="M1659.38,394.25c-1.635,-2.161 -3.844,-3.822 -6.375,-4.792c-2.953,-1.242 -6.13,-1.866 -9.333,-1.833c-7.195,-0.412 -14.08,3.078 -18,9.125l-0,-7.958l-8.334,-0l0,56.041l9.542,0l0,-30.583c0,-7.208 1.458,-12.083 4.375,-14.667c2.903,-2.535 6.647,-3.902 10.5,-3.833c2.324,-0.058 4.619,0.534 6.625,1.708c1.79,1.048 3.182,2.66 3.958,4.584c0.864,2.818 1.23,5.764 1.084,8.708l-0,34.083l9.541,0l0,-34.458c0.088,-3.095 -0.107,-6.191 -0.583,-9.25c-0.473,-2.511 -1.466,-4.896 -2.917,-7l-0.083,0.125Z" style="fill:#11518c;"/><path d="M135.292,394.083c-1.636,-2.161 -3.844,-3.821 -6.375,-4.791c-2.94,-1.238 -6.102,-1.862 -9.292,-1.834c-7.17,-0.313 -13.99,3.216 -17.875,9.25l0,-7.958l-8.542,0l0,56.042l9.5,-0l0,-30.584c0,-7.208 1.459,-12.083 4.417,-14.666c2.886,-2.536 6.617,-3.904 10.458,-3.834c2.336,-0.044 4.64,0.547 6.667,1.709c1.778,1.049 3.157,2.663 3.917,4.583c0.842,2.822 1.208,5.766 1.083,8.708l0,34.084l9.542,-0l-0,-34.459c0.078,-3.151 -0.132,-6.303 -0.625,-9.416c-0.487,-2.515 -1.495,-4.899 -2.959,-7l0.084,0.166Z" style="fill:#11518c;"/><rect x="165" y="367.583" width="9.542" height="77.208" style="fill:#11518c;"/><rect x="1689.25" y="388.75" width="9.542" height="55.875" style="fill:#11518c;"/><path d="M758.917,395.375c-1.727,-2.303 -3.93,-4.208 -6.459,-5.583c-2.789,-1.452 -5.897,-2.183 -9.041,-2.125c-9.19,-0.097 -17.522,5.552 -20.834,14.125c-1.906,4.855 -2.854,10.034 -2.791,15.25c-0.093,5.233 0.959,10.424 3.083,15.208c1.84,4.19 4.831,7.774 8.625,10.333c3.702,2.454 8.06,3.732 12.5,3.667c6.345,0.299 12.368,-2.905 15.667,-8.333l-0,7.041l8.833,0l-0,-77.375l-9.5,0l-0.083,27.792Zm-3.5,38.292c-2.529,3.241 -6.431,5.123 -10.542,5.083c-4.201,-0.019 -8.162,-1.992 -10.708,-5.333c-3.389,-4.646 -5.015,-10.35 -4.584,-16.084c-0.512,-5.759 0.958,-11.523 4.167,-16.333c2.49,-3.299 6.409,-5.219 10.542,-5.167c4.239,-0.093 8.291,1.787 10.958,5.084c3.343,4.976 4.9,10.941 4.417,16.916c0.426,5.534 -1.125,11.043 -4.375,15.542l0.125,0.292Z" style="fill:#11518c;"/><path d="M1122.79,421.292l-0,-12.5c0.063,-2.926 -0.104,-5.851 -0.5,-8.75c-0.461,-2.357 -1.475,-4.571 -2.959,-6.459c-1.805,-1.925 -4.071,-3.359 -6.583,-4.166c-3.759,-1.248 -7.708,-1.826 -11.667,-1.709c-4.334,-0.083 -8.649,0.594 -12.75,2c-3.248,1.06 -6.135,3.009 -8.333,5.625c-2.128,2.851 -3.556,6.163 -4.167,9.667l9.292,1.25c0.575,-3.232 2.236,-6.173 4.708,-8.333c2.99,-1.771 6.451,-2.585 9.917,-2.334c3.869,-0.296 7.713,0.847 10.792,3.209c2.078,2.246 3.068,5.294 2.708,8.333l0,2.458c-5.528,1.666 -11.209,2.768 -16.958,3.292c-2.805,0.295 -5.589,0.769 -8.334,1.417c-2.432,0.664 -4.74,1.719 -6.833,3.125c-2.049,1.39 -3.724,3.265 -4.875,5.458c-3.423,6.288 -2.149,14.156 3.083,19.042c3.999,3.235 9.076,4.844 14.209,4.5c3.569,0.039 7.115,-0.582 10.458,-1.834c3.718,-1.511 7.155,-3.638 10.167,-6.291c0.223,2.387 0.872,4.716 1.916,6.875l9.584,-0c-1.171,-2.084 -1.974,-4.353 -2.375,-6.709c-0.54,-5.538 -0.734,-11.104 -0.584,-16.666l0.084,-0.5Zm-9.625,-1.167c0.174,3.254 -0.352,6.508 -1.542,9.542c-1.371,2.774 -3.55,5.07 -6.25,6.583c-3.008,1.612 -6.379,2.43 -9.792,2.375c-2.994,0.203 -5.961,-0.702 -8.333,-2.542c-1.8,-1.581 -2.834,-3.864 -2.834,-6.261c0,-3.323 1.989,-6.343 5.042,-7.655c2.686,-0.988 5.486,-1.632 8.334,-1.917c5.303,-0.58 10.52,-1.783 15.541,-3.583l-0.166,3.458Z" style="fill:#11518c;"/><path d="M246.542,421.292l-0,-12.5c0.093,-2.925 -0.061,-5.852 -0.459,-8.75c-0.443,-2.362 -1.459,-4.58 -2.958,-6.459c-1.798,-1.934 -4.066,-3.369 -6.583,-4.166c-3.759,-1.248 -7.708,-1.826 -11.667,-1.709c-4.334,-0.08 -8.649,0.597 -12.75,2c-3.254,1.048 -6.145,2.999 -8.333,5.625c-2.128,2.851 -3.556,6.163 -4.167,9.667l9.292,1.25c0.574,-3.232 2.236,-6.173 4.708,-8.333c2.99,-1.771 6.451,-2.585 9.917,-2.334c3.868,-0.296 7.713,0.847 10.791,3.209c2.059,2.257 3.046,5.297 2.709,8.333l-0,2.458c-5.527,1.67 -11.209,2.773 -16.959,3.292c-2.804,0.299 -5.587,0.772 -8.333,1.417c-2.432,0.664 -4.74,1.719 -6.833,3.125c-2.041,1.412 -3.725,3.281 -4.917,5.458c-1.238,2.305 -1.883,4.883 -1.875,7.5c-0.133,4.397 1.701,8.632 5,11.542c3.986,3.229 9.048,4.837 14.167,4.5c3.583,0.039 7.142,-0.583 10.5,-1.834c3.718,-1.511 7.155,-3.638 10.166,-6.291c0.231,2.381 0.865,4.706 1.875,6.875l9.917,-0c-1.153,-2.092 -1.955,-4.358 -2.375,-6.709c-0.562,-5.536 -0.77,-11.103 -0.625,-16.666l-0.208,-0.5Zm-9.584,-1.167c0.175,3.254 -0.351,6.508 -1.541,9.542c-1.376,2.785 -3.572,5.083 -6.292,6.583c-2.99,1.621 -6.35,2.44 -9.75,2.375c-2.995,0.203 -5.962,-0.702 -8.333,-2.542c-1.809,-1.581 -2.848,-3.87 -2.848,-6.273c0,-3.312 1.976,-6.324 5.014,-7.643c2.688,-0.984 5.487,-1.627 8.334,-1.917c5.303,-0.58 10.52,-1.783 15.541,-3.583l-0.125,3.458Z" style="fill:#11518c;"/><path d="M1047.12,395.375c-2.048,-2.527 -4.66,-4.539 -7.625,-5.875c-3.077,-1.387 -6.416,-2.098 -9.792,-2.083c-6.028,-0.087 -11.743,2.739 -15.333,7.583l-0,-27.417l-9.5,0l-0,77.375l8.792,0l-0,-7c3.364,5.319 9.292,8.489 15.583,8.334c6.635,0.091 12.972,-2.802 17.25,-7.875c5.118,-6.255 7.666,-14.229 7.125,-22.292c0.032,-3.855 -0.53,-7.692 -1.667,-11.375c-1.008,-3.292 -2.588,-6.38 -4.666,-9.125l-0.167,-0.25Zm-7.667,37.5c-2.564,3.409 -6.59,5.419 -10.855,5.419c-5.068,-0 -9.73,-2.836 -12.061,-7.336c-2.159,-4.542 -3.106,-9.566 -2.75,-14.583c-0.385,-5.574 1.209,-11.109 4.5,-15.625c2.563,-3.376 6.553,-5.378 10.791,-5.417c4.128,0.01 8.026,1.936 10.542,5.209c3.19,4.771 4.661,10.49 4.167,16.208c0.413,5.739 -1.194,11.445 -4.542,16.125l0.208,0Z" style="fill:#11518c;"/><path d="M1256.96,395.125c-1.726,-2.303 -3.929,-4.208 -6.458,-5.583c-2.775,-1.449 -5.87,-2.18 -9,-2.125c-9.197,-0.122 -17.542,5.536 -20.833,14.125c-1.926,4.849 -2.875,10.032 -2.792,15.25c-0.113,5.235 0.94,10.43 3.083,15.208c1.848,4.198 4.855,7.783 8.667,10.333c3.705,2.447 8.061,3.724 12.5,3.667c6.345,0.299 12.368,-2.905 15.667,-8.333l-0,7.041l8.833,0l-0,-77.125l-9.458,0l-0.209,27.542Zm-3.25,38.083c-2.554,3.233 -6.463,5.111 -10.583,5.084c-4.199,-0.026 -8.158,-1.998 -10.708,-5.334c-3.375,-4.651 -4.985,-10.354 -4.542,-16.083c-0.493,-5.757 0.976,-11.516 4.167,-16.333c2.516,-3.29 6.442,-5.206 10.583,-5.167c4.28,-0.03 8.331,1.965 10.917,5.375c3.251,4.979 4.734,10.91 4.208,16.833c0.426,5.534 -1.124,11.043 -4.375,15.542l0.333,0.083Z" style="fill:#11518c;"/><rect x="485.542" y="412.208" width="29.167" height="9.542" style="fill:#11518c;"/><path d="M31.625,367.208l-29.708,77.584l10.875,-0l8.333,-23.417l32.375,0l9,23.417l11.708,-0l-31.541,-77.209l-11.042,-0.375Zm-7.375,45.834l8.333,-22.709c1.759,-4.818 3.152,-9.763 4.167,-14.791c1.208,4.166 3.042,9.541 5.5,16.041l8.417,21.459l-26.417,-0Z" style="fill:#11518c;"/><path d="M1430.31,387.633l0.104,-0.008l-0.209,0l0.105,0.008c-7.093,-0.19 -13.941,2.661 -18.813,7.825c-5.168,6.105 -7.782,13.976 -7.292,21.959c-0.476,7.751 2.114,15.388 7.209,21.25c9.799,8.911 24.497,10.081 35.583,2.833c4.286,-3.363 7.312,-8.078 8.583,-13.375l-9.791,-1.208c-1.064,3.426 -3.107,6.468 -5.875,8.75c-2.586,1.876 -5.723,2.844 -8.917,2.75c-4.426,0.119 -8.695,-1.674 -11.708,-4.917c-3.39,-3.924 -5.254,-8.94 -5.25,-14.125l41.666,0l0,-2.542c0.492,-7.828 -2.062,-15.551 -7.125,-21.541c-4.703,-5.063 -11.366,-7.859 -18.27,-7.659Zm-15.73,23.909c0.095,-4.384 1.853,-8.572 4.917,-11.709c2.919,-2.891 6.893,-4.471 11,-4.375c4.572,-0.118 8.944,1.921 11.792,5.5c2.232,3.086 3.481,6.776 3.583,10.584l-31.292,-0Z" style="fill:#11518c;"/><path d="M1316.31,387.55l0.104,-0.008l-0.209,-0l0.105,0.008c-7.095,-0.189 -13.941,2.661 -18.813,7.825c-5.153,6.11 -7.751,13.981 -7.25,21.958c-0.488,7.746 2.087,15.382 7.167,21.25c9.799,8.911 24.497,10.082 35.583,2.834c4.299,-3.359 7.34,-8.073 8.625,-13.375l-9.833,-1.209c-1.064,3.427 -3.107,6.469 -5.875,8.75c-2.589,1.871 -5.724,2.838 -8.917,2.75c-4.426,0.119 -8.695,-1.673 -11.708,-4.916c-3.423,-3.904 -5.292,-8.934 -5.25,-14.125l41.666,-0l0,-2.542c0.487,-7.82 -2.05,-15.536 -7.083,-21.542c-4.725,-5.055 -11.398,-7.848 -18.312,-7.658Zm-15.771,23.908c0.146,-4.38 1.914,-8.555 4.958,-11.708c2.934,-2.893 6.922,-4.473 11.042,-4.375c4.558,-0.106 8.911,1.932 11.75,5.5c2.249,3.08 3.514,6.771 3.625,10.583l-31.375,0Z" style="fill:#11518c;"/><path d="M368.227,387.508l0.106,-0.008l-0.208,0l0.102,0.008c-7.101,-0.232 -13.964,2.626 -18.81,7.825c-5.187,6.094 -7.804,13.973 -7.292,21.959c-0.495,7.754 2.098,15.397 7.208,21.25c9.793,8.89 24.465,10.06 35.542,2.833c4.312,-3.347 7.355,-8.067 8.625,-13.375l-9.833,-1.208c-1.035,3.429 -3.066,6.476 -5.834,8.75c-2.601,1.877 -5.751,2.843 -8.958,2.75c-4.424,0.108 -8.688,-1.683 -11.708,-4.917c-3.39,-3.924 -5.254,-8.94 -5.25,-14.125l41.666,0l0,-2.542c0.492,-7.828 -2.062,-15.551 -7.125,-21.541c-4.687,-5.062 -11.338,-7.858 -18.231,-7.659Zm-15.769,23.909c0.127,-4.385 1.897,-8.567 4.959,-11.709c2.913,-2.899 6.891,-4.481 11,-4.375c4.572,-0.118 8.944,1.921 11.791,5.5c2.217,3.095 3.464,6.779 3.584,10.584l-31.334,-0Z" style="fill:#11518c;"/><path d="M956.019,387.466l0.106,-0.008l-0.208,0l0.102,0.008c-7.098,-0.221 -13.958,2.635 -18.811,7.826c-5.172,6.099 -7.773,13.978 -7.25,21.958c-0.488,7.746 2.088,15.382 7.167,21.25c9.799,8.911 24.497,10.081 35.583,2.833c4.301,-3.349 7.331,-8.069 8.584,-13.375l-9.792,-1.208c-1.064,3.426 -3.106,6.468 -5.875,8.75c-2.586,1.877 -5.723,2.844 -8.917,2.75c-4.435,0.104 -8.711,-1.685 -11.75,-4.917c-3.394,-3.918 -5.246,-8.941 -5.208,-14.125l41.667,0l-0,-2.541c0.492,-7.828 -2.063,-15.551 -7.125,-21.542c-4.704,-5.063 -11.368,-7.859 -18.273,-7.659Zm-15.727,23.909c0.089,-4.393 1.865,-8.588 4.958,-11.708c2.9,-2.893 6.863,-4.475 10.958,-4.375c4.573,-0.119 8.945,1.92 11.792,5.5c2.233,3.086 3.482,6.775 3.583,10.583l-31.291,0Z" style="fill:#11518c;"/><rect x="1689.25" y="367.583" width="9.542" height="10.917" style="fill:#11518c;"/><path d="M1114.58,367.083l-9.75,0l0,10.834l9.959,-0l-0.209,-10.834Z" style="fill:#11518c;"/><rect x="1084.79" y="366.958" width="9.958" height="10.833" style="fill:#11518c;"/><path d="M310.333,395.5c-3.852,-5.144 -9.949,-8.138 -16.375,-8.042c-9.394,-0.276 -17.993,5.439 -21.375,14.209c-1.984,4.676 -2.977,9.712 -2.916,14.791c-0.206,7.189 2.027,14.24 6.333,20c4.213,5.555 10.912,8.678 17.875,8.334c6.032,0.093 11.778,-2.619 15.542,-7.334c0.185,4.083 -0.052,8.175 -0.709,12.209c-0.679,2.955 -2.394,5.572 -4.833,7.375c-3.012,1.962 -6.579,2.897 -10.167,2.666c-3.44,0.201 -6.853,-0.737 -9.708,-2.666c-1.869,-1.546 -3.028,-3.79 -3.208,-6.209l-9.209,-1.375c-0.507,5.241 1.735,10.386 5.917,13.584c4.794,3.205 10.489,4.796 16.25,4.541c4.931,0.15 9.82,-0.954 14.208,-3.208c3.624,-1.896 6.546,-4.905 8.334,-8.583c2.136,-5.951 3.043,-12.273 2.666,-18.584l0,-48.458l-8.75,0l0.125,6.75Zm-4.708,36.375c-2.687,3.272 -6.725,5.145 -10.958,5.083c-4.243,0.051 -8.289,-1.819 -11,-5.083c-3.232,-4.721 -4.707,-10.429 -4.167,-16.125c-0.39,-5.465 1.192,-10.893 4.458,-15.292c2.614,-3.254 6.576,-5.143 10.75,-5.125c4.271,0.004 8.323,1.916 11.042,5.209c5.995,9.565 5.995,21.767 0,31.333l-0.125,0Z" style="fill:#11518c;"/></g><path d="M2.833,340.083l1771.04,0l0,-7.625l-1770.83,0l-0.209,7.625Z" style="fill:#11518c;"/><g><path d="M1480.08,277.708c-7.791,0 -16.916,-1.708 -20,-9.916c-1.022,-2.875 -1.53,-5.908 -1.5,-8.959l-42.083,0c0.417,43.417 44.375,48.959 59.792,48.959c30.291,-0 62.875,-11.459 62.875,-46.875c-0,-25 -19.042,-33.875 -38.292,-39.209c-19.25,-5.333 -38.667,-7.416 -39.417,-17.125c0,-7.625 9.375,-9.166 15.042,-9.166c4.423,-0.162 8.789,1.046 12.5,3.458c3.75,2.211 5.736,6.55 4.958,10.833l39.584,0c-1.125,-33.125 -27.209,-44.375 -56.709,-44.375c-28,0 -54.875,13.542 -54.875,44.959c0,27.416 24.584,33.333 46.125,39.416c23.417,6.667 29.167,8.542 29.167,15.584c0,10.125 -10.458,12.5 -17.333,12.5l0.166,-0.084Z" style="fill:#11518c;"/><path d="M554.833,277.208c-7.791,0 -16.916,-1.708 -20,-9.916c-1.022,-2.875 -1.53,-5.908 -1.5,-8.959l-41.875,0c0.417,43.417 44.375,48.959 59.792,48.959c30.292,-0 62.875,-11.459 62.875,-46.875c0,-25 -19.042,-33.875 -38.292,-39.209c-19.25,-5.333 -38.666,-7.416 -39.416,-17.125c-0,-7.625 9.333,-9.166 15.041,-9.166c4.423,-0.162 8.79,1.046 12.5,3.458c3.769,2.194 5.762,6.547 4.959,10.833l39.625,0c-1.167,-33.125 -27.25,-44.375 -56.75,-44.375c-28,0 -54.834,13.542 -54.834,44.959c0,27.416 24.542,33.333 45.834,39.416c23.458,6.667 29.166,8.542 29.166,15.584c0,10.125 -10.458,12.5 -17.333,12.5l0.208,-0.084Z" style="fill:#11518c;"/><path d="M69.125,307.292c39.792,-0 62.083,-29.167 62.083,-56.584l-41.166,0c-2.459,12.792 -8,22.667 -22.084,22.667c-19.583,0 -25.875,-19.042 -25.875,-37.292c0,-18.25 6.292,-37.5 25.875,-37.5c17.334,0 21.167,15.042 21.917,20l40.75,0c-3.625,-34.083 -24.208,-53.708 -61.5,-53.916c-41.917,-0 -68.958,28.375 -68.958,71.25c-0,40.166 25,71.208 68.958,71.208l0,0.167Z" style="fill:#11518c;"/><path d="M477.708,168.167l-41.625,-0l0,135.958l41.875,0l-0.25,-135.958Z" style="fill:#11518c;"/><path d="M701.375,303.875l0,-100.917l38.083,0l0,-34.875l-117.958,0l0,34.875l38.125,0l0,101.084l41.75,-0.167Z" style="fill:#11518c;"/><path d="M1012.75,202.958l0,-34.875l-105.125,0l0,135.959l41.875,-0l0,-51.792l54.167,-0l-0,-32.375l-54.167,-0l0,-16.917l63.25,0Z" style="fill:#11518c;"/><path d="M1261.29,202.958l-0,-34.875l-112.5,0l-0,135.959l114.625,-0l-0,-34.834l-72.75,0l-0,-16.958l64.166,-0l0,-32.375l-64.166,-0l-0,-16.917l70.625,0Z" style="fill:#11518c;"/><path d="M1133.29,202.958l-0,-34.875l-105.084,0l0,135.959l41.875,-0l0,-51.792l54.167,-0l0,-32.375l-54.167,-0l0,-16.917l63.209,0Z" style="fill:#11518c;"/><path d="M272.333,304.042l0,-135.959l-41.916,0l-0,47.209l-39.25,-0l-0,-47.209l-41.667,0l-0,135.959l41.667,-0l-0,-53.875l39.25,-0l-0,53.875l41.916,-0Z" style="fill:#11518c;"/><path d="M751.542,235.917c-0,41.666 27.583,71.208 68.916,71.208c41.334,-0 68.917,-29.708 68.917,-71.208c0,-41.5 -27.583,-71.25 -68.917,-71.25c-41.333,-0 -68.916,29.708 -68.916,71.25Zm95.833,-0c-0,30.25 -16.375,37.291 -27.042,37.291c-10.666,0 -27.041,-7.041 -27.041,-37.291c-0,-30.25 16.375,-37.5 27.041,-37.5c10.667,-0 27.042,7.041 27.042,37.5Z" style="fill:#11518c;"/><path d="M1407.38,207c0,-25.708 -20.583,-38.833 -44.375,-38.833l-79.583,-0l-0,135.958l41.875,0l-0,-47.5l22.25,0c16.666,0 17.708,13.542 18.875,26.458c0.397,7.046 1.542,14.03 3.416,20.834l41.667,-0c-3.792,-6.292 -4.167,-22.459 -4.583,-29.167c-1.459,-16.958 -8.542,-29.5 -20,-33.917c13.916,-5.125 20.416,-20 20.416,-34.083l0.042,0.25Zm-82.333,-6.458l19.625,-0c15.958,-0 20.833,4.958 20.833,13.5c0,12.208 -10.708,13.541 -18.5,13.541l-21.958,0l-0,-27.041Z" style="fill:#11518c;"/><path d="M418.625,206.917c0,-25.709 -20.583,-38.834 -44.375,-38.834l-79.833,0l-0,135.959l41.875,-0l-0,-47.417l22.25,0c16.666,0 17.708,13.542 18.875,26.458c0.397,7.046 1.542,14.03 3.416,20.834l41.917,-0c-3.833,-6.292 -4.167,-22.459 -4.583,-29.167c-1.5,-16.958 -8.334,-29.5 -20,-33.917c13.916,-5.125 20.375,-20 20.375,-34.083l0.083,0.167Zm-82.333,-6.459l19.625,0c15.958,0 20.833,4.959 20.833,13.5c-0,12.209 -10.708,13.542 -18.5,13.542l-21.958,0l-0,-27.042Z" style="fill:#11518c;"/></g><path d="M1538.83,128.625l-1538.83,0l0,7.625l1539.04,0l-0.209,-7.625Z" style="fill:#11518c;"/><g><path d="M1,592.333l0,-58.833l20.25,0c3.508,-0.1 7.016,0.194 10.458,0.875c3.177,0.65 6.142,2.082 8.625,4.167c3.169,2.679 5.583,6.141 7,10.041c1.584,4.495 2.359,9.235 2.292,14c0.054,4.015 -0.479,8.015 -1.583,11.875c-0.923,2.988 -2.331,5.803 -4.167,8.334c-1.365,2.187 -3.132,4.096 -5.208,5.625c-2.133,1.407 -4.505,2.409 -7,2.958c-3.102,0.707 -6.277,1.042 -9.459,1l-21.208,-0.042Zm8,-6.916l12.5,-0c3.079,0.094 6.154,-0.271 9.125,-1.084c1.979,-0.604 3.79,-1.66 5.292,-3.083c1.958,-2.106 3.387,-4.648 4.166,-7.417c1.112,-3.672 1.633,-7.497 1.542,-11.333c0.279,-4.918 -0.757,-9.823 -3,-14.208c-1.664,-2.958 -4.257,-5.287 -7.375,-6.625c-3.271,-0.958 -6.679,-1.367 -10.083,-1.209l-12.167,0l-0,44.959Z" style="fill:#11518c;fill-rule:nonzero;"/><path d="M53.875,592.333l22.583,-58.833l8.334,0l24.208,58.833l-8.875,0l-6.833,-17.791l-24.709,-0l-6.458,17.791l-8.25,0Zm16.958,-24.125l19.959,0l-6.125,-16.291c-1.875,-4.959 -3.292,-9.042 -4.167,-12.209c-0.74,3.819 -1.799,7.568 -3.167,11.209l-6.5,17.291Z" style="fill:#11518c;fill-rule:nonzero;"/><path d="M112.5,573.458l7.333,-0.666c0.233,2.571 1.061,5.053 2.417,7.25c1.502,2.053 3.553,3.641 5.917,4.583c2.861,1.198 5.939,1.794 9.041,1.75c2.685,0.041 5.354,-0.411 7.875,-1.333c2.008,-0.694 3.773,-1.953 5.084,-3.625c1.074,-1.462 1.658,-3.228 1.666,-5.042c0.029,-1.749 -0.545,-3.457 -1.625,-4.833c-1.416,-1.613 -3.246,-2.809 -5.291,-3.459c-3.432,-1.145 -6.923,-2.105 -10.459,-2.875c-3.914,-0.803 -7.728,-2.033 -11.375,-3.666c-2.524,-1.261 -4.678,-3.157 -6.25,-5.5c-1.404,-2.185 -2.129,-4.737 -2.083,-7.334c-0.014,-2.97 0.873,-5.876 2.542,-8.333c1.784,-2.68 4.364,-4.735 7.375,-5.875c3.421,-1.407 7.093,-2.102 10.791,-2.042c3.951,-0.075 7.877,0.648 11.542,2.125c3.123,1.249 5.796,3.413 7.667,6.209c1.805,2.753 2.801,5.958 2.875,9.25l-7.459,0.583c-0.214,-3.223 -1.717,-6.228 -4.166,-8.333c-3.009,-2.085 -6.64,-3.085 -10.292,-2.834c-3.608,-0.295 -7.213,0.613 -10.25,2.584c-2.01,1.45 -3.217,3.771 -3.25,6.25c-0.059,1.991 0.784,3.906 2.292,5.208c3.597,2.163 7.593,3.58 11.75,4.167c4.437,0.855 8.788,2.111 13,3.75c3.029,1.267 5.653,3.343 7.583,6c1.644,2.464 2.502,5.371 2.458,8.333c-0.011,3.16 -0.953,6.247 -2.708,8.875c-1.9,2.844 -4.575,5.086 -7.708,6.458c-3.567,1.577 -7.434,2.359 -11.334,2.292c-4.571,0.148 -9.124,-0.646 -13.375,-2.333c-3.408,-1.458 -6.309,-3.895 -8.333,-7c-2.064,-3.149 -3.191,-6.82 -3.25,-10.584Z" style="fill:#11518c;fill-rule:nonzero;"/><path d="M192.333,533.5l48.709,0l-0,12.5l-30.375,0l-0,9.333l28.25,0l-0,12.25l-28.25,0l-0,11.625l31.375,0l-0,13.292l-49.709,0l0,-59Z" style="fill:#11518c;fill-rule:nonzero;"/><path d="M251.917,533.5l17,0l22.125,32.583l-0,-32.583l17.166,0l0,58.833l-17.166,0l-22,-32.291l-0,32.291l-17.125,0l-0,-58.833Z" style="fill:#11518c;fill-rule:nonzero;"/><path d="M320.208,533.5l48.75,0l0,12.5l-30.5,0l0,9.333l28.292,0l-0,12.25l-28.292,0l0,11.625l31.375,0l0,13.292l-49.625,0l0,-59Z" style="fill:#11518c;fill-rule:nonzero;"/><path d="M379.833,592.333l0,-58.833l30.334,0c4.34,-0.147 8.678,0.344 12.875,1.458c2.923,0.939 5.447,2.832 7.166,5.375c1.916,2.781 2.943,6.08 2.943,9.457c-0,5.82 -3.049,11.234 -8.026,14.252c-2.006,1.104 -4.17,1.891 -6.417,2.333c1.672,0.511 3.269,1.24 4.75,2.167c1.07,0.931 2.046,1.964 2.917,3.083c0.955,1.144 1.805,2.371 2.542,3.667l8.791,17.041l-20.375,0l-9.708,-17.958c-0.784,-1.718 -1.903,-3.262 -3.292,-4.542c-1.303,-0.918 -2.864,-1.399 -4.458,-1.375l-1.583,0l-0,23.875l-18.459,0Zm18.292,-35l7.667,0c1.618,-0.117 3.222,-0.382 4.791,-0.791c1.182,-0.215 2.24,-0.871 2.959,-1.834c0.747,-0.98 1.143,-2.184 1.125,-3.416c0.041,-1.584 -0.615,-3.108 -1.792,-4.167c-2.038,-1.233 -4.421,-1.774 -6.792,-1.542l-7.958,0l0,11.75Z" style="fill:#11518c;fill-rule:nonzero;"/><path d="M471.5,571.042l0,-12.25l28.083,-0l0,25c-4.378,3.151 -9.174,5.675 -14.25,7.5c-4.777,1.385 -9.735,2.045 -14.708,1.958c-5.899,0.243 -11.767,-0.973 -17.083,-3.542c-4.429,-2.42 -8.008,-6.145 -10.25,-10.666c-2.495,-5.033 -3.738,-10.593 -3.625,-16.209c-0.076,-5.822 1.36,-11.565 4.166,-16.666c2.627,-4.743 6.701,-8.525 11.625,-10.792c5.085,-2.129 10.577,-3.11 16.084,-2.875c4.926,-0.201 9.852,0.405 14.583,1.792c3.107,1.094 5.877,2.975 8.042,5.458c2.249,2.762 3.883,5.972 4.791,9.417l-17.541,3.125c-0.609,-2.062 -1.903,-3.855 -3.667,-5.084c-1.977,-1.25 -4.287,-1.874 -6.625,-1.791c-3.634,-0.135 -7.137,1.402 -9.5,4.166c-2.691,3.821 -3.959,8.467 -3.583,13.125c-0.444,4.84 0.841,9.683 3.625,13.667c2.525,2.834 6.209,4.369 10,4.167c1.977,0.007 3.945,-0.288 5.833,-0.875c2.217,-0.76 4.341,-1.766 6.333,-3l0,-5.542l-12.333,-0.083Z" style="fill:#11518c;fill-rule:nonzero;"/><rect x="511.208" y="533.5" width="18.25" height="58.833" style="fill:#11518c;fill-rule:nonzero;"/><path d="M542.333,533.5l48.709,0l-0,12.5l-30.375,0l-0,9.333l28.291,0l0,12.25l-28.291,0l-0,11.625l31.375,0l-0,13.292l-49.709,0l0,-59Z" style="fill:#11518c;fill-rule:nonzero;"/><path d="M625.125,592.333l0,-58.833l42.542,0l-0,6.958l-34.75,0l-0,18l32.541,0l0,6.917l-32.541,0l-0,20.042l36.125,-0l-0,6.916l-43.917,0Z" style="fill:#11518c;fill-rule:nonzero;"/><path d="M680.208,592.333l0,-58.833l39.667,0l0,6.958l-31.708,0l-0,18.209l27.625,-0l-0,6.958l-27.625,0l-0,26.708l-7.959,0Z" style="fill:#11518c;fill-rule:nonzero;"/><path d="M730.375,592.333l0,-58.833l39.708,0l0,6.958l-31.916,0l-0,18.209l27.625,-0l-0,6.958l-27.625,0l-0,26.708l-7.792,0Z" style="fill:#11518c;fill-rule:nonzero;"/><rect x="781.5" y="533.5" width="7.792" height="58.833" style="fill:#11518c;fill-rule:nonzero;"/><path d="M798.333,592.333l0,-7.208l30.125,-37.5c2.125,-2.708 4.167,-5 6.084,-7l-32.792,-0l0,-6.958l42.125,-0l0,6.958l-33.042,40.792l-3.583,4.166l37.5,0l0,6.917l-46.417,-0.167Z" style="fill:#11518c;fill-rule:nonzero;"/><rect x="854.542" y="533.5" width="7.792" height="58.833" style="fill:#11518c;fill-rule:nonzero;"/><path d="M876.208,592.333l0,-58.833l42.542,0l0,6.958l-34.75,0l0,18l32.542,0l-0,6.917l-32.542,0l0,20.042l36.083,-0l0,6.916l-43.875,0Z" style="fill:#11518c;fill-rule:nonzero;"/><path d="M930.792,592.333l-0,-58.833l7.958,0l30.917,46.208l-0,-46.208l7.458,0l0,58.833l-8,0l-30.958,-46.208l-0,46.208l-7.375,0Z" style="fill:#11518c;fill-rule:nonzero;"/><path d="M985.5,592.333l0,-7.208l30.125,-37.5c2.167,-2.708 4.167,-5 6.125,-7l-32.833,-0l-0,-6.958l42.125,-0l-0,6.958l-33,40.792l-3.584,4.166l37.5,0l0,6.917l-46.458,-0.167Z" style="fill:#11518c;fill-rule:nonzero;"/><path d="M1101.17,533.5l18.166,0l0,35.083c0.02,3.347 -0.529,6.672 -1.625,9.834c-1.057,3.055 -2.812,5.823 -5.125,8.083c-2.017,2.151 -4.496,3.818 -7.25,4.875c-4.099,1.409 -8.417,2.072 -12.75,1.958c-3.119,-0.024 -6.235,-0.218 -9.333,-0.583c-2.895,-0.301 -5.715,-1.104 -8.333,-2.375c-2.383,-1.289 -4.503,-3.013 -6.25,-5.083c-1.746,-1.973 -3.065,-4.285 -3.875,-6.792c-1.031,-3.208 -1.593,-6.548 -1.667,-9.917l0,-35.083l18.125,0l0,35.917c-0.172,2.758 0.792,5.469 2.667,7.5c1.995,1.881 4.678,2.861 7.416,2.708c2.707,0.166 5.365,-0.801 7.334,-2.667c1.881,-2.043 2.845,-4.77 2.666,-7.541l-0.166,-35.917Z" style="fill:#11518c;fill-rule:nonzero;"/><path d="M1131.5,533.5l16.958,0l22.125,32.583l0,-32.583l17.167,0l0,58.833l-17.167,0l-22,-32.291l0,32.291l-17.083,0l0,-58.833Z" style="fill:#11518c;fill-rule:nonzero;"/><path d="M1195.67,533.5l55.25,0l-0,14.542l-18.542,-0l0,44.291l-18.167,0l0,-44.291l-18.541,-0l-0,-14.542Z" style="fill:#11518c;fill-rule:nonzero;"/><path d="M1259,533.5l48.708,0l0,12.5l-30.375,0l0,9.333l28.292,0l0,12.25l-28.292,0l0,11.625l31.375,0l0,13.292l-49.708,0l0,-59Z" style="fill:#11518c;fill-rule:nonzero;"/><path d="M1318.75,592.333l0,-58.833l30.292,0c4.34,-0.153 8.679,0.339 12.875,1.458c2.929,0.927 5.457,2.823 7.166,5.375c1.892,2.799 2.854,6.124 2.75,9.5c0.046,2.912 -0.672,5.786 -2.083,8.334c-1.383,2.384 -3.366,4.366 -5.75,5.75c-1.987,1.111 -4.139,1.899 -6.375,2.333c1.662,0.501 3.247,1.23 4.708,2.167c1.08,0.92 2.058,1.953 2.917,3.083c0.969,1.133 1.821,2.361 2.542,3.667l8.833,17.041l-20.542,0l-9.583,-17.833c-0.755,-1.735 -1.878,-3.284 -3.292,-4.542c-1.29,-0.912 -2.836,-1.393 -4.416,-1.375l-1.625,0l-0,23.875l-18.417,0Zm18.25,-35l7.667,0c1.631,-0.116 3.249,-0.381 4.833,-0.791c1.166,-0.229 2.206,-0.882 2.917,-1.834c0.777,-0.966 1.19,-2.176 1.166,-3.416c0.031,-1.59 -0.64,-3.115 -1.833,-4.167c-2.022,-1.235 -4.393,-1.777 -6.75,-1.542l-8,0l0,11.75Z" style="fill:#11518c;fill-rule:nonzero;"/><path d="M1382.54,533.5l16.958,0l22.167,32.583l-0,-32.583l17.125,0l-0,58.833l-17.292,0l-22.042,-32.291l0,32.291l-17.083,0l0.167,-58.833Z" style="fill:#11518c;fill-rule:nonzero;"/><path d="M1450.67,533.5l48.708,0l-0,12.5l-30.5,0l-0,9.333l28.292,0l-0,12.25l-28.292,0l-0,11.625l31.375,0l-0,13.292l-49.583,0l-0,-59Z" style="fill:#11518c;fill-rule:nonzero;"/><path d="M1510.29,533.5l18.166,0l0,20.583l19.875,0l0,-20.583l18.25,0l0,58.833l-18.25,0l0,-23.791l-19.875,-0l0,23.791l-18.166,0l-0,-58.833Z" style="fill:#11518c;fill-rule:nonzero;"/><path d="M1578.46,533.5l23.917,0l9.208,35.792l9.167,-35.792l23.875,0l0,58.833l-14.792,0l0,-44.833l-11.458,44.833l-13.542,0l-11.458,-44.833l0,44.833l-14.917,0l0,-58.833Z" style="fill:#11518c;fill-rule:nonzero;"/><path d="M1656.21,533.5l48.625,0l0,12.5l-30.416,0l-0,9.333l28.291,0l0,12.25l-28.291,0l-0,11.625l31.375,0l-0,13.292l-49.584,0l0,-59Z" style="fill:#11518c;fill-rule:nonzero;"/><path d="M1715.71,533.5l16.959,0l22.166,32.583l0,-32.583l17.125,0l0,58.833l-17.125,0l-22.041,-32.291l-0,32.291l-17.084,0l0,-58.833Z" style="fill:#11518c;fill-rule:nonzero;"/></g><g><path d="M1786.47,8.213l-3.167,20.833l2.667,0.625c3.855,3.138 5.892,8.009 5.416,12.958c0,9.75 -11.583,12.5 -11.583,12.5l-39.958,277.542l-7.584,-0l37.917,-255.417l-20,31l-47.708,24.125l-15.042,48c-3.25,16.084 0.708,23.959 0.708,23.959l39.542,124.166l3.208,4.167l-34.833,-0l0.417,-4.5l-33.667,-95.125c-0,-0 -41.708,89.583 -43.083,93.75l-0.835,5.625l-40.499,-0l10.875,-12.708c0,-0 49.792,-108.834 53.917,-116.334c4.125,-7.5 -2.25,-21.875 -2.25,-21.875c-0,0 -13.708,-37.583 -16.417,-43.041l-24.951,-6.488c9.134,0.043 20.915,0.075 21.616,-0.055c0.534,-0.115 1.043,-0.327 1.5,-0.625l36.209,-27.458l2.251,-8.333c0.726,-2.437 1.249,-4.93 1.565,-7.453l0.06,-0.505l0.625,-8.875l0,-0.917c-0.272,-0.661 -0.592,-1.302 -0.958,-1.916l-0.958,-1.459l-0.625,-0.625l-2.417,-6.791c-0.208,-1.75 -0.208,-3.834 -0.208,-5.584l-0,-1.083c0.026,-2.407 0.611,-4.775 1.708,-6.917c1.559,-2.452 3.115,-4.468 5.288,-6.359l0.212,-0.182c0.423,-0.978 0.984,-1.89 1.667,-2.709c2.209,-2.402 5.13,-4.038 8.333,-4.666l0.349,-0.017c0.814,-0.033 1.629,-0.027 2.443,0.017c0.929,0.068 2.093,0.237 2.958,0.583l0.365,0.006c3.775,0.09 7.477,1.072 10.802,2.869c2.266,1.085 4.249,2.683 5.791,4.667c0,-0 2.042,1.25 2.042,2.75c-0.556,2.355 -0.919,4.752 -1.083,7.166c0.25,2.167 1.083,4.625 1.083,5.584c-0.371,3.701 -1.342,7.318 -2.875,10.708c-0.937,0.91 -1.955,1.733 -3.042,2.458c-1.346,3.11 -3.037,6.059 -5.041,8.792c-2.25,2.333 -3.167,3.417 -3.167,3.417l0.625,14.708c12.417,-1.208 50.625,-9.25 50.625,-9.25l29.5,-40.917l1.375,-16.375l8.542,-8.583l3.166,-20.833l6.584,1Z" style="fill:#c31622;"/><path d="M1581.93,83.444l-8.793,32.352c0,-0 0.417,1.25 2.834,2.625c1.41,0.747 4.144,2.238 6.018,3.402c1.743,-1.876 4.495,-2.662 4.438,-5.028c-0.083,-3.458 -7.166,-1.792 -7.083,-7.625c0.083,-5.833 7.417,-4.125 7.25,-7.208c-0.167,-3.084 -7,-2.792 -6.833,-7.709c0.166,-4.916 5.583,-5.583 5.583,-7.416c0.171,-1.65 -1.684,-2.352 -3.414,-3.393Z" style="fill:#c31622;"/><path d="M1630.27,17.963c0.565,1.355 1.038,2.747 1.417,4.166l0.337,0.956c0.187,3.878 -2.013,7.504 -5.545,9.128c-4.625,2 -6.459,2 -7.292,1.333l-1.5,-1.333l-4.167,-3.5l-15.916,3.708c-7.125,3.958 -12.96,6.874 -14.21,7.624c-1.471,0.837 -3.728,2.383 -4.867,4.479c1.123,-2.138 3.42,-3.714 4.91,-4.561c1.25,-0.75 7.042,-3.625 14.167,-7.542c2.583,-4.167 10.666,-16.25 13.833,-16.667c3.917,-0.541 7.083,-1.375 8.333,-1.375c2.646,-0.277 5.313,-0.277 7.959,0l2.541,3.584Z" style="fill:#c31622;"/><path d="M1650.85,0.254l23.708,-0.25c-0,0 5.917,-0.333 6.75,4.917c0.833,5.25 -6.577,8.654 -5.667,8.542c0.911,-0.113 1.834,0.031 2.667,0.416c2.568,0.512 4.499,2.682 4.708,5.292c-0.112,3.558 -2.374,6.712 -5.708,7.958c3.665,0.425 6.508,3.48 6.667,7.167c-0.159,2.133 -1.102,4.13 -2.641,5.609l-0.151,0.141c-0.865,-0.346 -2.029,-0.515 -2.958,-0.583c-0.814,-0.044 -1.629,-0.05 -2.443,-0.017l-0.349,0.017l1.375,-1c1.129,-1.007 1.83,-2.41 1.958,-3.917c0.065,-0.288 0.065,-0.587 0,-0.875c-0.593,-0.684 -1.471,-1.053 -2.375,-1c-0.641,-0.024 -1.271,0.166 -1.791,0.542c-1.542,1.25 -15.459,11.75 -29.5,22.083c-6.959,5.167 -14.125,10.375 -19.667,14.292c-2.75,2 -5.167,3.625 -6.917,4.791l-2.083,1.334l-0.458,0.25c-1.25,0.166 -5.959,0.458 -10.542,0.458l-16.667,-0l-0.5,0.042c-1.508,-0 -2.75,1.241 -2.75,2.75c0,1.508 1.242,2.75 2.75,2.75l16.667,-0c4.009,0.054 8.018,-0.155 12,-0.625c0.702,-0.187 1.365,-0.497 1.958,-0.917c6.25,-3.708 31.667,-22.458 46.542,-33.583l-0.212,0.182c-2.173,1.891 -3.729,3.907 -5.288,6.359c-1.063,2.075 -1.645,4.362 -1.704,6.691l-0.004,0.226c-4.084,3.042 -8.625,6.375 -13.292,9.75c-7.042,5.333 -28.958,20.833 -28.958,20.833l-0.292,0c-1.583,0.209 -26.333,0.5 -26.333,0.5l-0,-0.041c-1.469,0.065 -2.647,1.28 -2.667,2.75c-0,-0 0.292,2.75 2.75,2.75l22.708,-0.292c1.759,-0.018 3.515,-0.171 5.25,-0.458c0.654,-0.213 1.272,-0.522 1.834,-0.917c5.083,-3.208 24.5,-17.333 39.208,-28.208l2.417,6.791l-44.542,32.125l-26.375,0.667c-1.477,0.045 -2.667,1.272 -2.667,2.75l0.084,0.042c0.022,1.47 1.238,2.666 2.708,2.666l27.25,-0.666c0.555,0.006 1.096,-0.17 1.542,-0.5l44.541,-32.167l-0.625,8.875l-45.375,32.833l-26.708,0.625c-1.493,0.023 -2.709,1.257 -2.708,2.75c0.022,1.493 1.257,2.709 2.75,2.709l27.541,-0.667c0.551,-0.02 1.085,-0.193 1.542,-0.5l41.333,-29.792l-2.251,8.333l-36.209,27.458c-0.457,0.298 -0.966,0.51 -1.5,0.625c-0.701,0.13 -12.482,0.098 -21.616,0.055l-0.049,-0.012l-2.441,-0c-4.346,-0.022 -7.667,-0.043 -8.144,-0.043c-3.671,-0 -5.994,-1.107 -7.229,-2.822c-0.726,-1.037 -1.061,-2.296 -1.061,-3.677c0.024,-1.318 0.511,-2.587 1.375,-3.583l-0.023,-0.015c1.743,-1.876 4.495,-2.662 4.438,-5.028c-0.083,-3.458 -7.166,-1.792 -7.083,-7.625c0.083,-5.833 7.417,-4.125 7.25,-7.208c-0.167,-3.084 -7,-2.792 -6.833,-7.709c0.166,-4.916 5.583,-5.583 5.583,-7.416c0.171,-1.65 -1.684,-2.352 -3.414,-3.393l0.041,-0.148c-1.781,-0.689 -2.911,-2.442 -2.847,-4.312c0.01,-0.155 0.028,-0.315 0.053,-0.481c0.457,-3.391 4.365,-5.075 5.029,-6.709c0.09,-0.181 0.14,-0.36 0.14,-0.54c-0,-1.75 -2.667,-2.083 -4.625,-4.625c-1.179,-1.788 -1.223,-4.03 -0.287,-5.83c0.378,-0.7 0.907,-1.331 1.577,-1.837c1.475,-1.505 2.623,-1.656 3.204,-2.376c0.3,-0.335 0.464,-0.799 0.464,-1.623c-0,-1.667 -5.042,-2.292 -6.417,-5.834c-0.687,-1.726 -0.442,-3.274 0.257,-4.605c1.139,-2.096 3.396,-3.642 4.867,-4.479c1.25,-0.75 7.085,-3.666 14.21,-7.624l15.916,-3.708l-14.083,9l0.125,0.083c-1.75,1.042 -1.667,2.375 -0,3.042c1.255,0.337 2.578,0.337 3.833,-0c0.739,-0.15 1.445,-0.433 2.084,-0.834l12.208,-7.791l1.5,1.333c0.833,0.667 2.667,0.667 7.292,-1.333c3.532,-1.624 5.732,-5.25 5.545,-9.128l22.913,-14.706c1.75,-1 1.667,-2.375 -0,-3c-1.999,-0.578 -4.15,-0.322 -5.958,0.709l-18.709,11.875l-2.541,-3.584l23.125,-14.125Zm-66.084,62.375c0,-2.25 1.375,-2.916 3.625,-2.916c0,-0 5.459,0.208 11.459,0.291l9.625,0c1.91,0.01 3.819,-0.129 5.708,-0.416l0.792,-0.459c0.5,-0.291 1.291,-0.75 2.208,-1.375c1.792,-1.125 4.167,-2.791 7.083,-4.708c5.625,-3.917 12.75,-9 19.75,-14.042c11.625,-8.333 22.792,-16.666 26.417,-19.166l1.208,-0.875c0.459,-0.375 1.033,-0.581 1.625,-0.584c0.88,0.013 1.702,0.447 2.209,1.167c0.338,0.46 0.527,1.013 0.541,1.583c-0.016,0.869 -0.431,1.685 -1.125,2.209c-0.693,0.524 -41.416,30.5 -54.75,39.041c-1.393,1.002 -2.904,1.828 -4.5,2.459c-2.304,0.459 -4.651,0.669 -7,0.625l-9.833,-0c-5.875,-0 -11.542,-0.25 -11.542,-0.25c-1.5,-0 -3.5,-0.334 -3.5,-2.584Zm-0.916,-14.875c0.022,-1.5 1.5,-2.728 3,-2.75c1.5,-0.022 9.708,0.667 17.791,0.667l0.375,-0c2.382,0.046 4.765,-0.094 7.125,-0.417l0.25,0l0.667,-0.375l2.208,-1.416l7.042,-4.75c5.708,-3.834 12.917,-8.834 20.083,-13.792c12.5,-8.792 24.667,-17.25 27.542,-19.292l0.542,-0.333c0.435,-0.354 0.98,-0.546 1.541,-0.542c0.882,0.006 1.707,0.442 2.209,1.167c0.339,0.457 0.515,1.014 0.5,1.583c0.017,0.889 -0.404,1.731 -1.125,2.25c-0.721,0.52 -42.375,29.792 -55.375,38.292c-1.275,0.865 -2.596,1.657 -3.959,2.375c-1.344,0.443 -2.751,0.668 -4.166,0.667l-5.625,-0c-8.042,-0 -17.25,-0.584 -18.042,-0.625c-1.43,-0.087 -2.564,-1.277 -2.583,-2.709Z" style="fill:#11518c;"/></g></svg>