<svg width="583" height="222" viewBox="0 0 583 222" fill="none" xmlns="http://www.w3.org/2000/svg">
<path d="M94.7197 217.862H583" stroke="#D91090" stroke-width="4" stroke-miterlimit="10"/>
<path d="M108.162 111.31H467.6" stroke="white" stroke-width="5" stroke-miterlimit="10"/>
<path d="M133.6 162.621L121.605 161.173C122.639 156.207 125.121 151.448 128.843 147.931C132.566 144.621 137.529 142.966 142.493 143.173C148.284 143.173 152.627 144.828 155.522 148.138C158.417 151.448 159.865 155.793 159.658 160.138C159.658 162.207 159.451 164.276 159.245 166.138C159.038 168.207 158.211 174 156.763 183.104C155.729 188.276 155.108 193.655 154.902 199.035C154.902 202.138 155.315 205.035 155.936 207.931H143.941C143.527 205.655 143.113 203.173 143.113 200.69C141.459 203.173 139.391 205.448 136.909 207.104C134.841 208.552 132.359 209.379 129.877 209.379C126.155 209.379 122.639 207.517 120.571 204.207C117.882 200.276 116.642 195.724 116.848 190.966C116.642 185.793 118.089 180.828 120.985 176.483C123.673 172.966 128.637 170.69 135.461 169.862C139.391 169.655 143.527 168.828 147.25 167.379C147.663 165.517 147.87 163.655 148.077 161.586C148.077 159.931 147.456 158.276 146.422 157.035C145.181 155.793 143.527 155.173 141.666 155.173C139.804 154.966 137.943 155.793 136.495 157.035C134.841 158.69 134.014 160.552 133.6 162.621ZM145.388 178.345C144.354 178.759 143.32 178.966 142.493 179.173C136.289 180.207 132.359 181.655 130.291 183.724C127.809 186.828 127.602 191.173 129.877 194.483C130.911 195.724 132.359 196.552 134.014 196.552C135.875 196.552 137.736 195.931 139.391 194.69C141.045 193.448 142.286 191.793 143.113 189.931C144.147 187.035 144.975 183.931 145.388 180.828V178.345Z" fill="white" stroke="white" stroke-width="2" stroke-miterlimit="10"/>
<path d="M174.755 144.621H187.164L181.373 182.069C180.96 184.759 180.546 187.655 180.339 190.552C180.339 192.207 180.96 193.862 181.994 195.31C182.821 196.552 184.269 197.379 185.716 197.379C186.75 197.379 187.991 197.172 189.025 196.552C190.266 195.931 191.3 194.896 192.334 193.862C193.575 192.621 194.402 191.379 195.23 189.931C196.264 188.069 197.091 186 197.711 183.931C198.539 181.034 199.159 177.931 199.573 175.034L204.122 144.827H216.531L206.811 207.931H195.23L196.47 199.448C191.507 206.069 185.923 209.586 179.926 209.586C176.41 209.586 173.101 207.931 171.24 205.034C168.965 201.517 167.724 197.379 167.931 193.034C168.137 188.69 168.551 184.345 169.378 180L174.755 144.621Z" fill="white" stroke="white" stroke-width="2" stroke-miterlimit="10"/>
<path d="M217.565 190.138L229.56 187.448C230.181 190.138 231.629 192.827 233.49 194.896C235.351 196.345 237.626 197.172 239.901 196.965C242.383 197.172 244.864 196.138 246.726 194.483C247.967 193.241 248.587 191.793 248.38 190.138C248.38 189.103 248.173 188.069 247.553 187.034C246.105 185.586 244.244 184.552 242.383 183.724C234.938 180.207 230.388 177.517 228.526 175.655C225.631 172.345 224.183 168 224.39 163.448C224.39 158.896 225.838 154.345 228.526 150.621C232.249 145.655 237.833 142.965 245.278 142.965C251.069 142.965 255.619 144.414 258.721 147.517C261.823 150.827 263.891 154.965 264.512 159.517L253.137 162.207C252.31 157.655 248.173 154.552 243.624 154.758C241.556 154.552 239.487 155.172 238.04 156.621C237.006 157.655 236.385 159.31 236.385 160.758C236.385 162.207 237.006 163.655 238.04 164.689C240.108 166.138 242.59 167.172 244.864 168C250.862 170.483 254.998 172.758 256.86 175.241C259.755 178.552 261.203 182.689 261.203 187.241C261.203 193.034 259.341 198.414 255.619 202.965C251.896 207.517 246.105 209.793 240.315 209.586C233.697 209.586 228.526 207.931 225.011 204.621C221.081 200.483 218.393 195.517 217.565 190.138Z" fill="white" stroke="white" stroke-width="2" stroke-miterlimit="10"/>
<path d="M271.336 157.241L273.197 144.62H279.195L280.642 134.483L294.912 122.689L291.603 144.62H299.049L297.187 157.241H289.535L285.606 183.724C284.779 188.483 284.572 191.379 284.572 192C284.572 193.034 284.779 194.276 285.399 195.103C286.226 195.931 287.467 196.345 288.708 196.138C289.329 196.138 290.569 195.931 292.844 195.724L290.983 208.345C288.915 208.965 286.64 209.172 284.365 209.172C280.022 209.172 276.92 207.931 274.852 205.655C272.784 202.965 271.75 199.448 271.956 195.931C272.163 191.379 272.784 186.827 273.611 182.483L277.333 157.034H271.336V157.241Z" fill="white" stroke="white" stroke-width="2" stroke-miterlimit="10"/>
<path d="M342.066 181.448H311.044C311.044 182.069 311.044 182.69 311.044 183.103C310.837 186.621 311.871 190.138 313.733 193.241C314.973 195.517 317.455 196.965 320.144 197.172C324.28 197.172 327.589 194.276 329.657 188.276L340.825 190.759C339.17 196.138 336.275 200.897 332.139 204.621C328.83 207.517 324.487 209.172 319.937 209.172C313.939 209.172 308.149 206.276 305.047 201.103C301.117 195.724 299.256 188.69 299.256 179.793C299.049 171.724 300.91 163.862 304.426 156.621C309.183 147.517 316.007 142.965 324.694 142.965C330.071 142.759 335.241 145.655 338.136 150.207C341.445 154.965 343.1 161.793 343.1 170.276C342.893 174.207 342.686 177.931 342.066 181.448ZM331.725 171.103C331.725 170.276 331.725 169.862 331.725 169.448C331.932 165.724 331.105 162.207 329.45 158.897C328.209 156.621 325.934 155.379 323.453 155.379C320.557 155.379 318.076 156.828 316.421 159.31C314.146 162.828 312.699 166.965 312.285 171.103H331.725Z" fill="white" stroke="white" stroke-width="2" stroke-miterlimit="10"/>
<path d="M377.637 184.138L389.632 186.828C388.184 193.035 385.289 199.035 380.739 203.793C377.223 207.517 372.26 209.586 367.296 209.586C361.712 209.793 356.542 207.104 353.44 202.345C349.924 197.586 348.27 190.966 348.27 182.483C348.27 175.862 349.304 169.241 351.372 162.828C353.026 157.241 356.335 152.276 360.678 148.345C364.401 145.035 369.364 143.173 374.328 142.966C379.291 142.759 384.048 145.035 387.15 148.966C390.666 153.31 392.527 158.69 392.734 164.276L380.946 165.931C380.946 163.241 380.118 160.552 378.671 158.069C377.43 156.414 375.569 155.586 373.707 155.586C371.019 155.793 368.537 157.035 367.089 159.31C364.608 162.621 362.953 166.345 362.333 170.276C361.299 174.828 360.678 179.379 360.678 184.138C360.471 187.241 361.299 190.138 362.746 192.828C363.78 194.69 365.642 195.724 367.71 195.931C369.985 195.724 372.053 194.69 373.5 193.035C375.569 190.345 377.016 187.448 377.637 184.138Z" fill="white" stroke="white" stroke-width="2" stroke-miterlimit="10"/>
<path d="M408.245 207.931H395.836L409.072 120.621H421.481L416.724 151.655C418.999 149.172 421.687 146.896 424.583 145.034C426.858 143.586 429.546 142.965 432.441 142.965C435.957 142.759 439.266 144.414 441.334 147.31C443.609 150.621 444.85 154.759 444.643 158.896C444.437 162.828 444.023 166.759 443.402 170.69L437.819 207.724H425.41L431.201 170.069C431.614 167.379 432.028 164.896 432.028 162.207C432.028 160.345 431.614 158.69 430.58 157.241C429.753 156 428.305 155.379 426.651 155.379C424.376 155.586 422.101 156.621 420.653 158.276C418.172 160.965 416.103 164.276 415.069 168C413.828 172.965 412.794 177.724 412.174 182.896L408.245 207.931Z" fill="white" stroke="white" stroke-width="2" stroke-miterlimit="10"/>
<path d="M459.328 144.621H471.116L469.875 152.897C472.15 150 475.045 147.517 478.147 145.448C480.629 144 483.318 143.172 486.006 143.172C489.522 142.965 492.831 144.828 494.899 147.724C497.174 151.241 498.415 155.379 498.208 159.517C498.001 163.655 497.588 168 496.76 172.138L491.383 207.931H478.975L484.352 171.931C485.179 166.552 485.593 163.448 485.593 162.414C485.799 160.552 485.179 158.69 484.145 157.241C483.318 156 481.87 155.379 480.215 155.379C477.941 155.586 475.666 156.828 474.218 158.483C471.943 160.759 470.082 163.655 469.048 166.759C467.6 171.724 466.566 176.69 465.946 181.862L462.016 207.931H449.607L459.328 144.621Z" fill="white" stroke="white" stroke-width="2" stroke-miterlimit="10"/>
<path d="M513.098 144.621H525.507L515.994 207.931H503.585L513.098 144.621Z" fill="white" stroke="white" stroke-width="2" stroke-miterlimit="10"/>
<path d="M527.781 207.931L541.017 120.621H553.426L546.601 166.138L562.732 144.621H578.864L560.251 167.586L569.971 207.931H557.562L551.358 178.759L543.085 189.103L540.19 208.138L527.781 207.931Z" fill="white" stroke="white" stroke-width="2" stroke-miterlimit="10"/>
<path d="M135.461 30.6205H148.283L142.492 71.586C141.872 76.5515 141.458 79.6549 141.458 80.6894C141.458 82.5515 141.872 84.4136 142.906 85.8618C143.733 87.1032 145.181 87.9308 146.835 87.9308C148.076 87.9308 149.11 87.517 150.144 86.8963C151.385 86.0687 152.626 85.2412 153.453 83.9998C154.694 82.7584 155.728 81.1032 156.556 79.6549C157.59 77.586 158.417 75.3101 159.244 73.0343C160.071 69.7239 160.692 66.6205 161.105 63.3101L165.862 30.4136H178.684L168.757 99.7239H156.762L158.003 90.4136C152.833 97.655 147.042 101.379 141.045 101.379C137.322 101.379 133.806 99.517 131.945 96.4136C129.463 92.4825 128.429 87.9308 128.636 83.3791C128.843 78.6205 129.463 73.8618 130.084 69.1032L135.461 30.6205Z" fill="#D91090" stroke="#D91090" stroke-width="2" stroke-miterlimit="10"/>
<path d="M180.96 99.7239L194.609 4.1377H207.432L202.882 36.2067C204.743 33.9308 207.018 32.0687 209.5 30.6205C211.568 29.586 213.843 28.9653 216.118 28.9653C221.081 28.9653 225.838 31.8618 228.113 36.2067C231.215 41.1722 232.663 48.2067 232.663 57.517C232.663 63.7239 232.042 69.9308 230.595 75.9308C229.561 81.1032 227.699 85.8618 225.011 90.4136C223.149 93.7239 220.668 96.4136 217.565 98.6894C215.084 100.551 212.188 101.379 209.293 101.379C202.468 101.379 197.505 97.0342 194.403 88.3446L192.748 99.7239H180.96ZM198.125 71.586C197.918 75.517 198.953 79.448 200.814 82.9653C202.055 85.448 204.33 87.1032 207.225 87.3101C209.707 87.1032 211.982 85.8618 213.222 83.9998C215.704 80.6894 217.359 77.1722 217.979 73.2411C219.22 68.2756 219.84 63.3101 219.84 58.1377C220.047 54.2067 219.22 50.0687 217.152 46.5515C215.911 44.0687 213.636 42.6205 210.948 42.4136C207.639 42.4136 204.95 44.4825 202.675 48.8273C199.573 55.8618 197.918 63.7239 198.125 71.586Z" fill="#D91090" stroke="#D91090" stroke-width="2" stroke-miterlimit="10"/>
<path d="M254.998 50.0686L242.59 48.4134C243.624 43.0341 246.312 37.8617 250.035 33.9307C253.757 30.4134 258.928 28.5513 264.098 28.7582C270.096 28.7582 274.645 30.6203 277.541 34.1376C280.436 37.8617 282.091 42.6203 281.884 47.3789C281.884 49.6548 281.677 51.7238 281.47 53.9996C281.263 56.2755 280.436 62.4824 278.782 72.6203C277.748 78.4134 277.127 84.2065 276.92 89.9996C276.92 93.31 277.334 96.6203 277.954 99.9307H265.546C265.132 97.4479 264.718 94.7582 264.718 92.0686C263.064 94.7582 260.996 97.241 258.307 99.1031C256.239 100.551 253.551 101.379 250.862 101.379C246.933 101.379 243.21 99.1031 241.142 95.7927C238.453 91.4479 237.006 86.4824 237.419 81.31C237.213 75.7238 238.66 70.1376 241.556 65.5858C244.451 61.6548 249.414 59.172 256.653 58.3445C260.789 58.1376 264.925 57.1031 268.855 55.6548C269.268 53.5858 269.682 51.5169 269.682 49.4479C269.682 47.5858 269.268 45.9307 268.027 44.4824C266.787 43.0341 264.925 42.2065 263.064 42.4134C260.996 42.4134 259.135 43.0341 257.687 44.4824C256.239 45.9307 255.205 47.9996 254.998 50.0686ZM266.993 67.4479C265.959 67.8617 264.925 68.0686 263.891 68.2755C257.48 69.31 253.344 70.9651 251.276 73.241C249.828 75.1031 249.001 77.3789 249.208 79.6548C249.208 81.5169 249.621 83.5858 250.862 85.241C251.689 86.6893 253.344 87.5169 254.998 87.5169C257.066 87.5169 258.928 86.6893 260.375 85.4479C262.03 83.9996 263.478 82.1376 264.098 80.2755C265.339 76.9651 265.959 73.6548 266.58 70.1376L266.993 67.4479Z" fill="#D91090" stroke="#D91090" stroke-width="2" stroke-miterlimit="10"/>
<path d="M290.776 44.4827L292.638 30.6206H298.842L300.496 19.4482L315.18 6.62061L311.871 30.6206H319.73L317.869 44.4827H310.01L305.874 73.4482C305.046 78.6206 304.839 81.724 304.839 82.3447C304.839 83.5861 305.046 84.6206 305.667 85.6551C306.494 86.4827 307.735 87.1034 308.976 86.8965C309.596 86.8965 310.837 86.6896 313.112 86.4827L311.044 100.345C308.769 100.965 306.494 101.379 304.219 101.379C299.669 101.379 296.36 100.138 294.292 97.6551C292.224 94.5516 291.19 90.8275 291.397 87.1034C291.604 82.1378 292.224 77.1723 293.051 72.4137L296.981 44.4827H290.776Z" fill="#D91090" stroke="#D91090" stroke-width="2" stroke-miterlimit="10"/>
<path d="M320.557 80.2757L332.965 77.3791C333.586 80.4826 335.033 83.1722 337.102 85.4481C338.963 87.1033 341.238 87.9308 343.719 87.9308C346.408 88.1377 348.89 86.8964 350.751 85.0343C351.992 83.7929 352.612 82.1377 352.612 80.2757C352.612 79.0343 352.406 77.9998 351.785 76.9653C350.337 75.3102 348.476 74.2757 346.408 73.4481C338.756 69.724 333.999 66.8274 332.138 64.5515C329.036 60.8274 327.588 56.0688 327.795 51.3102C327.588 46.3446 329.036 41.3791 331.931 37.2412C335.861 31.655 341.651 28.9653 349.303 28.9653C355.301 28.9653 360.058 30.6205 363.16 33.9308C366.469 37.655 368.537 42.2067 369.157 47.1722L357.369 50.2757C356.955 48.2067 355.921 46.1377 354.267 44.6895C352.406 43.0343 349.924 41.9998 347.442 42.2067C345.374 41.9998 343.306 42.6205 341.651 44.0688C340.41 45.3102 339.79 46.9653 339.79 48.6205C339.79 50.2757 340.41 51.724 341.651 52.9653C343.926 54.4136 346.201 55.655 348.89 56.6895C355.094 59.3791 359.23 61.8619 361.298 64.5515C364.401 68.2757 365.848 72.8274 365.848 77.586C366.055 83.7929 363.987 89.7929 360.264 94.5515C356.542 99.5171 350.544 102.207 344.34 101.793C337.515 101.793 332.345 99.9308 328.622 96.2067C324.072 91.655 321.384 86.2757 320.557 80.2757Z" fill="#D91090" stroke="#D91090" stroke-width="2" stroke-miterlimit="10"/>
<path d="M404.936 73.6548L417.344 76.5513C415.897 83.3789 412.794 89.7927 408.245 95.172C404.729 99.103 399.559 101.379 394.388 101.379C388.598 101.586 383.014 98.4824 380.118 93.5168C376.603 88.3444 374.741 81.1031 374.741 71.7927C374.741 64.5513 375.775 57.3099 378.05 50.4824C379.705 44.4824 383.014 38.8962 387.77 34.7582C391.493 31.0341 396.663 29.172 401.833 28.9651C407.004 28.7582 411.967 31.241 415.276 35.3789C418.792 40.3444 420.86 46.1375 420.86 52.1375L408.658 53.9996C408.658 50.8962 407.831 47.9996 406.176 45.5168C404.936 43.8617 403.074 42.8272 401.006 42.8272C398.111 43.0341 395.629 44.4824 394.181 46.9651C391.7 50.4824 390.045 54.6203 389.218 59.172C388.184 64.1375 387.563 69.1031 387.563 74.2755C387.357 77.5858 388.184 80.8962 389.632 83.7927C390.666 85.8617 392.527 87.103 394.802 87.103C397.077 86.8962 399.352 85.8617 400.799 83.7927C402.661 80.6893 404.108 77.172 404.936 73.6548Z" fill="#D91090" stroke="#D91090" stroke-width="2" stroke-miterlimit="10"/>
<path d="M436.371 99.7239H423.549L437.405 4.1377H450.227L445.264 38.2756C447.539 35.586 450.227 33.1032 453.33 31.2411C455.811 29.7929 458.5 29.1722 461.188 29.1722C464.911 29.1722 468.22 30.8273 470.288 33.9308C472.563 37.6549 473.804 41.9998 473.597 46.5515C473.39 50.8963 472.977 55.2411 472.356 59.3791L466.566 99.9308H453.743L459.741 58.7584C460.154 55.8618 460.568 52.9653 460.568 50.0687C460.568 48.2067 460.154 46.1377 459.12 44.4825C458.293 43.2411 456.639 42.4136 455.191 42.4136C452.709 42.6205 450.434 43.6549 448.987 45.7239C446.298 48.8273 444.23 52.3446 443.196 56.2756C441.955 61.6549 440.921 67.0342 440.507 72.6204L436.371 99.7239Z" fill="#D91090" stroke="#D91090" stroke-width="2" stroke-miterlimit="10"/>
<path d="M85.8267 128.482H42.81L32.2627 213.724H9.30664L32.6763 8.27539H55.6323L46.7394 87.5168H89.9629L98.8558 8.27539H121.812L98.4421 213.724H75.4861L85.8267 128.482Z" fill="#D91090" stroke="#D91090" stroke-width="8" stroke-miterlimit="10"/>
<path d="M547.015 14.0687C535.847 2.48252 518.268 -0.207135 504.205 7.86183C494.071 13.448 486.833 23.1722 484.351 34.5515C481.869 45.3101 480.629 56.4825 486.626 66.6205C489.935 72.8273 494.071 78.4136 498.828 83.586C505.032 89.7929 508.134 96.6205 506.894 105.31C506.894 105.931 506.894 106.551 506.894 107.379C506.687 112.138 506.894 116.689 507.514 121.448C509.789 132.207 522.198 136.758 529.85 129.724C533.572 126 535.433 121.034 535.433 115.862C535.433 110.276 535.02 104.896 535.64 99.3101C535.847 95.9998 537.088 92.6894 538.742 89.9998C542.051 85.2411 545.774 80.4825 549.497 76.1377C564.387 57.517 563.353 31.2411 547.015 14.0687ZM522.611 129.517C517.854 129.931 510.409 125.172 511.237 118.965H532.124C532.331 124.345 528.195 129.103 522.611 129.517ZM532.331 105.517V108H511.443V105.517H532.331ZM511.443 101.379V98.8963H532.331V101.379H511.443ZM532.331 112.138V114.62H511.443V112.138H532.331ZM547.635 73.0342C544.533 77.1722 541.224 80.8963 538.122 84.8273C536.674 86.2756 535.64 87.9308 535.02 89.586C534.606 91.448 533.572 93.1032 532.331 94.5515H511.443C509.582 92.6894 508.134 90.6204 507.1 88.1377C506.066 85.0342 502.757 82.7584 500.482 80.0687C493.037 71.586 486.212 62.4825 486.212 50.4825C486.006 33.9308 490.969 19.6549 506.066 10.5515C517.234 4.13769 531.09 5.17218 541.224 13.2411C559.01 28.3446 561.905 53.7929 547.635 73.0342Z" fill="#D91090"/>
<path d="M518.062 84.8275H513.305C513.305 84.8275 512.685 70.7585 510.616 68.0689C508.548 65.3792 504.412 52.3447 504.412 52.3447L512.685 56.8965L518.062 53.793L522.405 56.4827L526.334 53.9999L530.677 56.4827L539.156 52.5516L532.745 68.0689C530.677 73.4482 529.436 79.2413 529.436 85.0344H525.093C525.093 83.3792 525.3 81.724 525.3 80.0689C525.507 77.793 526.127 75.5171 526.748 73.2413C527.161 71.793 527.575 70.3447 527.989 69.1034L529.229 65.3792C529.643 64.3447 530.263 63.3102 530.47 62.0689V61.862L526.334 58.9654L522.818 62.0689L518.062 59.1723L512.891 62.2758C513.305 63.1033 513.719 64.1378 514.132 64.9654C514.959 66.6206 515.787 68.4827 516.2 70.3447C516.614 72.2068 516.821 74.2758 517.234 76.1378C517.441 76.9654 517.441 77.9999 517.648 78.8275C518.062 81.1033 518.062 82.9654 518.062 84.8275Z" fill="#D91090"/>
</svg>
