<svg xmlns="http://www.w3.org/2000/svg" width="241" height="67.15" viewBox="0 0 241 67.15"><defs><style>.cls-1{fill:#fefefe;}.cls-2{fill:#0e2e5a;}.cls-3{fill:#10305c;}.cls-4{fill:#0e2e5b;}.cls-5{fill:#0f2f5c;}.cls-6{fill:#d37e27;}.cls-7{fill:#d37e28;}.cls-8{fill:#d37e26;}.cls-9{fill:#12325e;}.cls-10{fill:#173761;}.cls-11{fill:#193963;}.cls-12{fill:#e28f14;}.cls-13{fill:#fdfdfe;}.cls-14{fill:#f6f8f9;}</style></defs><title>Logo_Hermes</title><g id="Ebene_2" data-name="Ebene 2"><g id="Unternehmen"><path class="cls-1" d="M120.5,0H240.38c.51,0,.62.11.62.62q0,33,0,65.91c0,.51-.11.62-.62.62q-119.88,0-239.76,0C.11,67.15,0,67,0,66.53q0-33,0-65.91C0,.11.11,0,.62,0Q60.56,0,120.5,0ZM55.61,26.94c.4,0,.24-.31.24-.49q0-2.84,0-5.67c0-.16.1-.37-.13-.47l-2.48,0h-12c-.28,0-.63-.13-.62.42,0,1.94,0,3.89,0,5.83,0,.37.14.46.47.45.6,0,1.21,0,1.81,0A1.28,1.28,0,0,0,44,26.55c1.25-1.28,2.56-2.51,3.78-3.81.4-.43.59-.36,1,0,1.23,1.29,2.51,2.54,3.78,3.81.2.2.37.42.72.41C54.05,27,54.83,27,55.61,26.94Zm.11,8.49c.18-.06.14-.21.14-.33v-6c0-.12,0-.26-.14-.33-.75,0-1.51,0-2.27-.06a1.06,1.06,0,0,0-.87.37c-1.32,1.34-2.66,2.66-4,4-.27.27-.4.28-.66,0-.92-1-2-1.8-2.77-2.82a3.77,3.77,0,0,0-3.83-1.55h-.06c-.45-.06-.62.09-.61.58,0,1.85,0,3.71,0,5.57,0,.43.11.57.56.56,1.43,0,2.86,0,4.29,0ZM127.41,26l6.1,6.85a.86.86,0,0,0,1.49,0l5.64-6.47c.08-.09.13-.26.32-.16,0,2.95,0,5.9,0,8.85,0,.44.12.57.56.55.84,0,1.7,0,2.55,0,.33,0,.47-.06.47-.43q0-7.29,0-14.56c0-.34-.08-.48-.45-.46a13.67,13.67,0,0,1-1.81,0,1.49,1.49,0,0,0-1.41.64c-2,2.48-4.14,4.93-6.19,7.4-.32.38-.47.38-.78,0-1.8-2.11-3.71-4.13-5.4-6.32a3.74,3.74,0,0,0-3.81-1.75c-.48.08-.67.1-.67.66,0,2,0,4,0,6,0,2.75,0,5.5,0,8.25,0,.4.09.55.51.53.83,0,1.66,0,2.49,0,.32,0,.42-.1.41-.42,0-.76,0-1.52,0-2.28Zm-9.69,3.83c.24,0,.4,0,.55,0,2-.14,2.85-1.08,2.85-3.05V23.17c0-2-.93-3-2.88-3-4.61,0-9.22,0-13.83,0-.33,0-.47.07-.47.44q0,7.29,0,14.57c0,.35.11.45.46.45.94,0,1.88,0,2.82,0,.5,0,.58-.17.57-.62,0-1.54,0-3.09,0-4.63,0-.49.15-.59.6-.58,1.39,0,2.78,0,4.16,0a.91.91,0,0,1,.9.52q1.47,2.43,3,4.84c.12.19.17.46.5.46,1.42,0,2.83,0,4.34,0Zm56.33,5.78h0c2.23,0,4.47,0,6.71,0,2,0,3-.84,3.15-2.48a23.31,23.31,0,0,0,0-4.42,2.34,2.34,0,0,0-2.19-2.38,12.57,12.57,0,0,0-2.6-.15c-2.84,0-5.68,0-8.52,0-.52,0-.66-.14-.63-.64a18,18,0,0,0,0-2.08c0-.39.12-.49.49-.48,1.1,0,2.19,0,3.29,0,3.06,0,6.13,0,9.19,0,.49,0,.62-.14.58-.6a10.82,10.82,0,0,1,0-1.61c0-.48-.07-.66-.6-.64-1.23.05-2.46,0-3.69,0-3.14,0-6.27,0-9.4,0-1.91,0-2.87.63-3.15,2.14a13.13,13.13,0,0,0,0,4.8A2.27,2.27,0,0,0,168.55,29a9.65,9.65,0,0,0,2.4.19c3,0,6,0,9,0,.45,0,.64.09.61.59,0,.8,0,1.61,0,2.41,0,.39-.11.49-.49.49-1.41,0-2.82,0-4.23,0-2.84,0-5.68,0-8.52,0-.47,0-.63.12-.59.59s0,1.21,0,1.81c0,.43.09.57.53.56,2.28,0,4.54,0,6.8,0Zm-81.13,0c2.5,0,5,0,7.51,0,.46,0,.64-.1.61-.57a12.78,12.78,0,0,1,0-1.75c0-.54-.16-.66-.67-.65-3.71,0-7.43,0-11.14,0-.46,0-.63-.1-.61-.58a20.69,20.69,0,0,0,0-2.49c0-.52.13-.68.67-.67,3.08,0,6.17,0,9.26,0,.43,0,.66-.06.61-.58a7.22,7.22,0,0,1,0-1.47c0-.54-.13-.71-.7-.7-3,0-6.08,0-9.13,0-.62,0-.76-.18-.71-.75a9.12,9.12,0,0,0,0-1.81c-.06-.61.17-.73.74-.72,3.62,0,7.25,0,10.87,0,.5,0,.67-.11.63-.62a10.82,10.82,0,0,1,0-1.61c0-.47-.11-.59-.58-.59q-7.45,0-14.9,0c-.51,0-.63.13-.63.63q0,7.11,0,14.23c0,.54.18.61.65.6,2.51,0,5,0,7.52,0Zm62.86,0c2.52,0,5.05,0,7.58,0,.43,0,.59-.11.56-.56a9.32,9.32,0,0,1,0-1.67c.06-.6-.14-.75-.73-.74-3.69,0-7.39,0-11.08,0-.49,0-.66-.1-.63-.62.05-.87,0-1.75,0-2.62,0-.38.12-.51.5-.5.8,0,1.61,0,2.42,0,2.32,0,4.65,0,7,0,.53,0,.7-.15.65-.67a6,6,0,0,1,0-1.34c.07-.59-.13-.75-.73-.74-3.09,0-6.17,0-9.26,0-.42,0-.6-.09-.57-.55a11.68,11.68,0,0,0,0-1.87c-.05-.65.11-.87.82-.86,3.06,0,6.13,0,9.19,0,.72,0,1.68.25,2.08-.11s.07-1.4.15-2.13c0-.49-.16-.57-.6-.57q-7.43,0-14.83,0c-.48,0-.64.08-.64.61q0,7.11,0,14.22c0,.57.2.63.68.63,2.49,0,5,0,7.46,0ZM64.3,27.82c0,2.35,0,4.7,0,7,0,.55.07.79.71.74a15.23,15.23,0,0,1,2.34,0c.62,0,.83-.1.81-.78-.06-1.71,0-3.43,0-5.15,0-.47.14-.55.57-.55q4.22,0,8.45,0c.45,0,.61.1.6.58,0,1.79,0,3.58,0,5.37,0,.4.07.55.5.53,1,0,1.93,0,2.89,0,.32,0,.42-.09.41-.41q0-7.32,0-14.63c0-.32-.09-.42-.41-.41-1,0-1.92,0-2.88,0-.43,0-.52.13-.51.53,0,1.58,0,3.17,0,4.76,0,.4,0,.59-.53.59q-4.26,0-8.52,0c-.45,0-.57-.15-.56-.58,0-1.58,0-3.17,0-4.75,0-.46-.14-.56-.56-.55-.89,0-1.79.05-2.68,0-.55,0-.61.18-.61.65C64.31,23.12,64.3,25.47,64.3,27.82Zm-12.73.05c-.07-.08-.12-.16-.18-.22-1-1-1.94-1.92-2.89-2.9-.25-.25-.38-.08-.54.08-.9.91-1.79,1.81-2.71,2.71-.22.22-.3.36,0,.63.93.9,1.84,1.83,2.74,2.76.22.23.36.24.59,0,.92-.94,1.86-1.87,2.8-2.81l.22-.25Zm134.19,15.4c0-.19,0-.3,0-.4,0-.27.11-.59-.39-.58s-.34.39-.34.62c0,2,0,4.07,0,6.1,0,.24-.12.55.35.54s.38-.26.38-.53c0-1.29.05-2.59,0-3.89a1.9,1.9,0,0,1,.77-1.73c.53-.42,1.06-.78,1.75-.48s.62.92.63,1.5c0,1.54,0,3.09,0,4.62,0,.22-.1.5.32.51s.4-.25.4-.52c0-1.35,0-2.69,0-4a1.71,1.71,0,0,1,.72-1.54c.56-.46,1.15-.86,1.88-.56s.73,1.05.74,1.72c0,1.48,0,3,0,4.43,0,.23-.08.5.33.5s.4-.16.4-.45c0-1.68-.05-3.36,0-5,.05-2-1.9-2.39-3.11-1.48-.33.24-.64.52-1,.79C188.8,41.75,187.84,41.72,185.76,43.27Zm-25.51,6.44c2.27,0,3.69-1.83,2.95-3.82A3.25,3.25,0,0,0,161,44.05a7.75,7.75,0,0,1-2-.87,1.68,1.68,0,0,1-.73-1.74A1.66,1.66,0,0,1,159.44,40a2.13,2.13,0,0,1,2.89,1.49c.14.42.39.32.66.24s.2-.35.12-.54a4.84,4.84,0,0,0-.36-.72,3,3,0,0,0-3.34-1.25,2.65,2.65,0,0,0-.2,5.07c.73.32,1.5.57,2.22.91a1.91,1.91,0,0,1,1.11,1.91,2,2,0,0,1-1.43,1.75,2.53,2.53,0,0,1-3.22-1.64c-.11-.26-.18-.49-.55-.34s-.31.34-.21.63a3.18,3.18,0,0,0,3.13,2.18Zm21.08-3.78c.58,0,1.16,0,1.74,0,.34,0,.49-.07.46-.44a4.89,4.89,0,0,0-.51-2.06,2.28,2.28,0,0,0-3.89-.32,5.41,5.41,0,0,0,0,5.57,2.56,2.56,0,0,0,4.29-.52c.12-.25,0-.36-.14-.49s-.32,0-.42.13-.21.3-.32.44a1.75,1.75,0,0,1-2.93-.23,4.52,4.52,0,0,1-.49-1.8c0-.31.15-.3.36-.29Zm16.56,0h.54c.57,0,1.43.27,1.65-.14.32-.58,0-1.38-.27-2,0,0,0-.09-.05-.13a2.23,2.23,0,0,0-1.94-1.43,2.29,2.29,0,0,0-2.16,1.09,5.55,5.55,0,0,0,.11,5.36,2.55,2.55,0,0,0,4.33-.47c.12-.26,0-.35-.15-.48s-.31,0-.42.13a4.37,4.37,0,0,1-.31.44,1.76,1.76,0,0,1-2.9-.17,4.64,4.64,0,0,1-.53-1.85c-.06-.34.15-.3.36-.3ZM166.54,48c-.26-.72-.48-1.37-.7-2-.37-1.1-.77-2.19-1.1-3.3a.54.54,0,0,0-.77-.38c-.4.11-.09.4,0,.57.63,1.83,1.23,3.68,2,5.46a2.45,2.45,0,0,1-.3,2.31,1.17,1.17,0,0,1-1.24.62c-.29,0-.44-.05-.46.32s.23.35.47.37a2.07,2.07,0,0,0,2.11-1.54c.38-.91.69-1.88,1-2.82.59-1.74,1.16-3.49,1.75-5.23-.61-.23-.85,0-1,.54-.3,1-.62,2.09-1,3.12a9.19,9.19,0,0,1-.73,2Zm5.68-5.83c-1.42,0-2.31.61-2.5,1.51s.22,1.6,1.34,2.11c.53.24,1.08.42,1.61.64a1.23,1.23,0,0,1,.9,1.27,1.41,1.41,0,0,1-1.21,1.17,2,2,0,0,1-2.11-.84c-.23-.32-.38-.14-.59,0s-.13.32,0,.48a2.72,2.72,0,0,0,2,1.11A2.41,2.41,0,0,0,174.26,48c.29-1.15-.15-1.84-1.49-2.38a11.67,11.67,0,0,1-1.78-.77,1,1,0,0,1-.52-1,1,1,0,0,1,.68-.91,1.83,1.83,0,0,1,2.13.5c.27.29.43.29.68,0s-.05-.43-.18-.56A2.33,2.33,0,0,0,172.22,42.19ZM175.85,46h0v2.22c0,1.24.69,1.73,1.92,1.45.3-.07.41-.21.38-.51s-.29-.16-.44-.15c-.88.07-1.11-.09-1.14-1,0-1.21,0-2.41,0-3.61,0-.47-.19-1,.1-1.36s.76-.08,1.15-.08.34-.11.34-.36-.14-.33-.37-.32-.49,0-.74,0-.51-.08-.49-.48c0-.57,0-1.16,0-1.74,0-.24-.05-.37-.33-.37s-.4.07-.4.37c0,.54,0,1.08,0,1.61s-.06.68-.56.62c-.22,0-.57-.17-.59.3s.37.36.6.34c.46,0,.57.13.56.56,0,.82,0,1.65,0,2.48Z"/><path class="cls-2" d="M127.41,26V32.9c0,.76,0,1.52,0,2.28,0,.32-.09.43-.42.42-.82,0-1.65,0-2.48,0-.43,0-.51-.13-.51-.53,0-2.75,0-5.5,0-8.25,0-2,0-4,0-6,0-.56.2-.59.68-.66a3.74,3.74,0,0,1,3.81,1.75c1.69,2.19,3.6,4.21,5.39,6.32.32.37.47.37.79,0,2.05-2.48,4.15-4.92,6.19-7.4a1.48,1.48,0,0,1,1.41-.64,13.67,13.67,0,0,0,1.81,0c.37,0,.45.12.44.46V35.16c0,.37-.13.44-.46.43-.85,0-1.71,0-2.55,0-.44,0-.56-.11-.56-.55,0-2.95,0-5.91,0-8.85-.19-.1-.25.07-.32.16L135,32.82a.86.86,0,0,1-1.49,0Z"/><path class="cls-3" d="M117.72,29.81l3.54,5.78c-1.5,0-2.92,0-4.34,0-.33,0-.38-.27-.5-.46-1-1.61-2-3.23-3-4.84a.89.89,0,0,0-.9-.52c-1.38,0-2.77,0-4.16,0-.45,0-.61.09-.6.58,0,1.54,0,3.08,0,4.63,0,.44-.07.64-.57.61-.94,0-1.88,0-2.82,0-.34,0-.46-.09-.46-.45q0-7.28,0-14.56c0-.38.14-.44.47-.44,4.61,0,9.22,0,13.83,0,2,0,2.88,1.06,2.88,3v3.56c0,2-.88,2.91-2.85,3.05C118.12,29.8,118,29.8,117.72,29.81ZM112.28,27v0c1.36,0,2.73,0,4.09,0,.88,0,1.19-.35,1.22-1.23,0-.43,0-.85,0-1.28,0-1.3-.3-1.64-1.6-1.65-2.59,0-5.18,0-7.77,0-.36,0-.46.1-.45.45,0,1.1,0,2.19,0,3.28,0,.39.13.49.49.49C109.61,27,110.94,27,112.28,27Z"/><path class="cls-4" d="M174.05,35.59c-2.26,0-4.52,0-6.78,0-.45,0-.57-.13-.54-.56a13.67,13.67,0,0,0,0-1.81c0-.48.13-.6.59-.59,2.84,0,5.69,0,8.53,0,1.41,0,2.82,0,4.23,0,.37,0,.5-.1.49-.49,0-.8,0-1.61,0-2.42,0-.49-.16-.58-.61-.58-3,0-6,0-9,0a10.19,10.19,0,0,1-2.4-.19,2.25,2.25,0,0,1-1.84-1.88,13.13,13.13,0,0,1,0-4.8c.29-1.52,1.25-2.14,3.15-2.15,3.14,0,6.27,0,9.4,0,1.23,0,2.46,0,3.69,0,.53,0,.65.16.61.64a10.82,10.82,0,0,0,0,1.61c0,.46-.1.6-.58.59-3.07,0-6.13,0-9.2,0-1.09,0-2.19,0-3.28,0-.38,0-.51.1-.5.49a18,18,0,0,1,0,2.08c0,.5.12.65.63.64q4.26,0,8.52,0a12.67,12.67,0,0,1,2.61.14,2.35,2.35,0,0,1,2.19,2.39,23.31,23.31,0,0,1,0,4.42c-.17,1.64-1.2,2.45-3.16,2.47-2.24,0-4.47,0-6.71,0Z"/><path class="cls-5" d="M92.92,35.59c-2.51,0-5,0-7.52,0-.47,0-.65-.07-.65-.61q0-7.11,0-14.23c0-.49.11-.63.62-.63q7.45,0,14.9,0c.47,0,.63.12.59.59a8.66,8.66,0,0,0,0,1.61c0,.52-.14.63-.63.63-3.63,0-7.25,0-10.88,0-.57,0-.8.11-.74.73a9.12,9.12,0,0,1,0,1.81c0,.56.1.75.72.74,3,0,6.08,0,9.13,0,.57,0,.74.16.69.7a9.14,9.14,0,0,0,0,1.48c.06.52-.17.58-.61.58-3.09,0-6.17,0-9.26,0-.54,0-.69.15-.66.67,0,.83,0,1.65,0,2.48,0,.48.14.59.6.58,3.71,0,7.42,0,11.14,0,.52,0,.72.12.67.66A12.63,12.63,0,0,0,101,35c0,.48-.15.58-.6.57C97.93,35.58,95.42,35.59,92.92,35.59Z"/><path class="cls-4" d="M155.78,35.59c-2.49,0-5,0-7.45,0-.49,0-.69-.06-.68-.63q0-7.12,0-14.22c0-.54.16-.61.63-.61q7.42,0,14.84,0c.44,0,.65.08.6.57-.08.73.31,1.71-.15,2.13s-1.37.11-2.08.11c-3.06,0-6.13,0-9.19,0-.72,0-.87.21-.82.85a11.8,11.8,0,0,1,0,1.88c0,.46.14.55.57.55,3.09,0,6.17,0,9.26,0,.6,0,.8.15.73.74a6,6,0,0,0,0,1.34c.05.52-.12.68-.66.67-2.32,0-4.65,0-7,0-.8,0-1.61,0-2.41,0-.38,0-.51.12-.5.5,0,.87,0,1.74,0,2.61,0,.53.14.63.63.63,3.69,0,7.39,0,11.08,0,.59,0,.79.13.73.74a9.31,9.31,0,0,0,0,1.67c0,.45-.13.56-.56.56C160.83,35.58,158.3,35.59,155.78,35.59Z"/><path class="cls-2" d="M64.3,27.82c0-2.35,0-4.7,0-7,0-.47.06-.67.6-.64.89.05,1.79,0,2.69,0,.42,0,.57.08.56.54,0,1.59,0,3.17,0,4.75,0,.44.11.59.57.58q4.25,0,8.51,0c.48,0,.54-.19.54-.59,0-1.59,0-3.17,0-4.76,0-.4.08-.54.51-.53,1,0,1.93,0,2.89,0,.32,0,.41.1.41.42q0,7.31,0,14.62c0,.32-.09.42-.41.41-1,0-1.93,0-2.89,0-.43,0-.51-.13-.51-.53,0-1.78,0-3.57,0-5.37,0-.48-.14-.58-.6-.58q-4.22,0-8.45,0c-.42,0-.57.09-.56.55,0,1.72,0,3.44,0,5.16,0,.67-.18.82-.8.77a15.37,15.37,0,0,0-2.35,0c-.63,0-.71-.19-.71-.74C64.32,32.52,64.3,30.17,64.3,27.82Z"/><path class="cls-6" d="M55.72,35.43l-10.19,0c-1.43,0-2.86,0-4.29,0-.45,0-.57-.12-.56-.56,0-1.85,0-3.71,0-5.57,0-.49.16-.64.61-.57h.06a3.77,3.77,0,0,1,3.83,1.54c.82,1,1.85,1.88,2.77,2.82.26.28.4.27.66,0,1.31-1.34,2.65-2.65,4-4a1,1,0,0,1,.87-.37c.76,0,1.52,0,2.27.05Z"/><path class="cls-7" d="M55.61,26.94c-.78,0-1.56,0-2.34,0-.35,0-.53-.21-.73-.41-1.26-1.26-2.54-2.52-3.78-3.81-.36-.38-.55-.44-1,0C46.57,24,45.28,25.27,44,26.56A1.26,1.26,0,0,1,43,27c-.61,0-1.21,0-1.81,0-.34,0-.48-.07-.48-.44,0-1.95,0-3.9,0-5.84,0-.54.34-.41.63-.41H53.25c.83,0,1.66,0,2.48,0v5.85A1.29,1.29,0,0,1,55.61,26.94Z"/><path class="cls-8" d="M51.58,27.87l-.22.25-2.8,2.81c-.22.23-.36.22-.59,0-.9-.93-1.81-1.86-2.74-2.76-.28-.27-.2-.41,0-.63.91-.89,1.8-1.8,2.7-2.7.17-.16.29-.34.54-.09,1,1,1.93,1.94,2.89,2.9Z"/><path class="cls-9" d="M185.76,43.27c2.08-1.55,3-1.52,3.8.12.33-.27.63-.55,1-.8,1.21-.9,3.16-.5,3.11,1.49,0,1.67,0,3.35,0,5,0,.29-.05.44-.4.44s-.33-.27-.33-.49V44.63c0-.67,0-1.42-.74-1.72a1.78,1.78,0,0,0-1.88.56,1.71,1.71,0,0,0-.72,1.54c.06,1.34,0,2.68,0,4,0,.27,0,.53-.4.52s-.32-.28-.32-.5c0-1.54,0-3.09,0-4.62,0-.58,0-1.22-.63-1.51s-1.22.07-1.75.49a1.89,1.89,0,0,0-.77,1.73c.06,1.29,0,2.59,0,3.89,0,.27,0,.53-.39.53S185,49.25,185,49c0-2,0-4.07,0-6.1,0-.23-.19-.6.34-.62s.38.31.39.58C185.74,43,185.75,43.08,185.76,43.27Z"/><path class="cls-10" d="M160.26,49.71a3.16,3.16,0,0,1-3.12-2.19c-.1-.28-.16-.49.21-.63s.44.08.55.34a2.53,2.53,0,0,0,3.22,1.65,2,2,0,0,0,1.43-1.76,1.9,1.9,0,0,0-1.11-1.9c-.72-.34-1.49-.6-2.22-.92a2.64,2.64,0,0,1,.2-5.06,3,3,0,0,1,3.34,1.25,4.3,4.3,0,0,1,.36.71c.08.19.23.44-.12.54s-.53.18-.66-.24A2.13,2.13,0,0,0,159.45,40a1.81,1.81,0,0,0-.43,3.17A8.1,8.1,0,0,0,161,44a3.26,3.26,0,0,1,2.24,1.85C163.94,47.88,162.53,49.71,160.26,49.71Z"/><path class="cls-10" d="M181.33,45.93h-1.81c-.21,0-.41,0-.36.3a4.47,4.47,0,0,0,.49,1.79,1.74,1.74,0,0,0,2.93.23,4.25,4.25,0,0,0,.31-.43c.11-.16.21-.3.43-.14s.26.24.14.49a2.57,2.57,0,0,1-4.3.53,5.43,5.43,0,0,1,0-5.57,2.28,2.28,0,0,1,3.89.31,5,5,0,0,1,.51,2.06c0,.38-.12.46-.46.44C182.49,45.91,181.91,45.93,181.33,45.93Zm-.42-.69h1.47c.2,0,.33,0,.34-.27a2.37,2.37,0,0,0-1.16-2c-1-.42-2,.27-2.3,1.56-.12.46-.12.78.52.7A8.52,8.52,0,0,1,180.91,45.24Z"/><path class="cls-10" d="M197.89,45.93h-1.74c-.2,0-.42,0-.36.3a4.17,4.17,0,0,0,.54,1.85,1.75,1.75,0,0,0,2.89.17c.11-.14.22-.28.32-.43s.2-.29.42-.14.27.23.14.48a2.55,2.55,0,0,1-4.33.47,5.58,5.58,0,0,1-.11-5.36,2.31,2.31,0,0,1,2.16-1.09,2.24,2.24,0,0,1,1.94,1.43,1.12,1.12,0,0,1,.05.13c.25.67.59,1.47.27,2.06-.21.39-1.07.08-1.65.13A4.86,4.86,0,0,1,197.89,45.93Zm-.31-.69h.8c1.15,0,1.18,0,.77-1.12a2.55,2.55,0,0,0-.31-.59,1.45,1.45,0,0,0-2.34-.15,2.63,2.63,0,0,0-.57,1c-.25.79-.23.81.58.81Z"/><path class="cls-11" d="M166.54,48a9.26,9.26,0,0,0,.73-2c.34-1,.67-2.07,1-3.11.15-.53.4-.77,1-.55-.57,1.75-1.15,3.49-1.74,5.24-.32.94-.63,1.9-1,2.82A2,2,0,0,1,164.36,52c-.24,0-.49,0-.47-.37s.18-.36.47-.32a1.15,1.15,0,0,0,1.23-.62,2.4,2.4,0,0,0,.31-2.3c-.73-1.79-1.33-3.63-2-5.46-.06-.17-.37-.46,0-.58s.63-.08.77.39c.34,1.1.73,2.2,1.1,3.29Z"/><path class="cls-11" d="M172.22,42.19a2.33,2.33,0,0,1,1.56.76c.12.13.5.24.18.56s-.41.26-.69,0a1.81,1.81,0,0,0-2.13-.5,1.06,1.06,0,0,0-.68.91,1,1,0,0,0,.53,1,11.67,11.67,0,0,0,1.78.77c1.34.54,1.77,1.23,1.49,2.38a2.42,2.42,0,0,1-2.64,1.58,2.68,2.68,0,0,1-2-1.11c-.12-.16-.28-.31,0-.48s.36-.3.59,0a2,2,0,0,0,2.11.84,1.39,1.39,0,0,0,1.2-1.17,1.21,1.21,0,0,0-.89-1.27c-.54-.22-1.09-.4-1.61-.64-1.12-.51-1.54-1.19-1.35-2.11S170.8,42.19,172.22,42.19Z"/><path class="cls-3" d="M175.85,46c0-.83,0-1.66,0-2.48,0-.43-.1-.6-.55-.56-.23,0-.62.18-.6-.34s.37-.33.58-.31c.51.06.6-.17.57-.61s0-1.07,0-1.61c0-.3.11-.37.4-.37s.33.13.33.37c0,.58,0,1.16,0,1.74,0,.39.12.52.49.48a6.09,6.09,0,0,1,.74,0c.24,0,.38,0,.37.31s-.07.36-.34.36-.94-.18-1.16.08-.09.9-.09,1.36c0,1.21,0,2.42,0,3.62,0,.87.25,1,1.14,1,.14,0,.4-.24.43.16a.4.4,0,0,1-.37.51c-1.24.28-1.9-.21-1.92-1.46,0-.38,0-.76,0-1.14V46Z"/><path class="cls-12" d="M55.61,26.94a1.23,1.23,0,0,0,.11-.78V20.31c.24.1.14.31.14.47q0,2.84,0,5.67C55.85,26.63,56,26.94,55.61,26.94Z"/><path class="cls-12" d="M55.72,35.43V28.81c.18.06.14.21.14.33v6C55.86,35.22,55.9,35.37,55.72,35.43Z"/><path class="cls-13" d="M112.28,27h-4c-.37,0-.51-.09-.5-.48,0-1.09,0-2.19,0-3.28,0-.35.1-.46.45-.45,2.59,0,5.18,0,7.77,0,1.3,0,1.6.36,1.61,1.66,0,.42,0,.85,0,1.27,0,.88-.35,1.22-1.23,1.24-1.36,0-2.72,0-4.08,0Z"/><path class="cls-14" d="M180.91,45.24a8.52,8.52,0,0,0-1.13,0c-.64.08-.64-.24-.52-.7.32-1.3,1.32-2,2.3-1.57a2.4,2.4,0,0,1,1.16,2c0,.27-.14.27-.34.27Z"/><path class="cls-14" d="M197.58,45.24H196.5c-.8,0-.82,0-.58-.82a2.66,2.66,0,0,1,.57-1,1.46,1.46,0,0,1,2.35.15,3,3,0,0,1,.3.59c.4,1.08.38,1.12-.77,1.12Z"/></g></g></svg>