<svg svg="" xmlns="http://www.w3.org/2000/svg" xml:space="preserve" version="1.1" shape-rendering="geometricPrecision" text-rendering="geometricPrecision" image-rendering="optimizeQuality" fill-rule="evenodd" clip-rule="evenodd" viewBox="0 0 44966.77 24603.7" xmlns:xlink="http://www.w3.org/1999/xlink">
    <g id="Ebene_x0020_1">
        <metadata id="CorelCorpID_0Corel-Layer"></metadata>
        <path fill="white" d="M15902.36 21852.44c210.68,0 379.15,-53.14 506.26,-158.13 127.19,-105.16 190.64,-246.42 190.64,-423.75 0,-172.37 -63.45,-311.75 -190.64,-416.77 -127.11,-105.35 -295.58,-157.74 -506.26,-157.74l-1121.02 0 0 1156.39 1121.02 0zm-12540.18 -1907.34l0 0c354.38,246.71 576.99,587.79 667.91,1023.45l-1163.98 237.26c-42.56,-215.53 -143.77,-381.83 -301.58,-498.89 -157.98,-117.45 -337.39,-176.13 -538.53,-176.13 -192.2,0 -347.56,46.24 -467.06,140.15 -119.79,93.06 -179.53,209.09 -179.53,348.11 0,211.05 129.14,344.74 387.87,402.38l998.48 223.05c881.1,196.03 1321.94,662.95 1321.94,1400.33 0,493.37 -189.55,876.26 -567.54,1149.62 -378.76,273.02 -850.28,409.27 -1415.17,409.27 -560.56,0 -1035.9,-128.01 -1426.28,-384.23 -390.11,-256.35 -616.58,-614.29 -678.71,-1074.15l1221.24 -236.9c114.63,474.02 430.84,711.45 948.24,711.45 220.35,0 393.99,-45.42 521.06,-136.71 126.49,-91.21 190.35,-210.68 190.35,-359.29 0,-114.97 -32.82,-206.18 -97.06,-272.88 -64.53,-67.14 -180.76,-117.14 -348.57,-150.85l-1005.69 -215.77c-862.06,-196.2 -1293.1,-660.42 -1293.1,-1393.44 0,-464.36 174.92,-833.32 524.48,-1106.2 349.85,-273.02 809.39,-409.49 1379.29,-409.49 526.89,0 967.35,123.21 1321.94,369.85zm3319.99 2086.92l0 0c230.13,0 410.5,-61.16 542.46,-183.02 131.69,-122.17 197.5,-286.3 197.5,-492.31 0,-196.44 -67.28,-355.53 -201.07,-477.78 -134.08,-122.08 -313.73,-183.17 -538.89,-183.17l-1048.96 0 0 1336.28 1048.96 0zm136.68 -2349.15l0 0c541.28,0 970.96,152.27 1289.41,456.26 188.08,179.65 320.62,393.22 397.78,640.92 104.27,-167.36 231.38,-324.67 381.1,-472.14 496.05,-488.58 1102.44,-732.66 1821.07,-732.66 718.27,0 1325.56,244.08 1821.27,732.66 495.73,488.63 743.29,1084.51 743.29,1788.54 0,699.31 -247.55,1292.13 -743.29,1778.3 -495.71,485.93 -1102.99,728.95 -1821.27,728.95 -718.64,0 -1325.03,-243.02 -1821.07,-728.95 -400.72,-393.17 -639.5,-855.8 -716.47,-1387.97 -24.58,26.07 -50.05,51.69 -76.9,76.58 -327.7,306.74 -769.96,460.09 -1325.36,460.09l-1135.21 0 0 1472.86 -1184.85 0 0 -4813.45 2370.5 0zm4873.58 3430.45l0 0c263.05,-270.49 395.01,-609.62 395.01,-1016.87 0,-411.66 -131.96,-754.23 -395.01,-1027.04 -263.36,-272.88 -591.26,-409.34 -984.21,-409.34 -392.77,0 -720.66,136.46 -984.02,409.34 -263.55,272.81 -395.54,615.38 -395.54,1027.04 0,407.25 131.98,746.37 395.54,1016.87 263.36,270.16 591.26,405.9 984.02,405.9 392.96,0 720.85,-135.74 984.21,-405.9zm8435.6 -2395.92l0 0 0 3778.68 -1178.34 0 0 -3778.68 -1268.81 0c54.48,164.2 82.2,343.7 82.2,538.77 0,393.01 -112.63,724.2 -337.82,994.96 -224.76,270.71 -534.07,449.01 -926.98,535.11l1508.62 1709.84 -1429.58 0 -1451.25 -1652.41 -344.71 0 0 1652.41 -1185.04 0 0 -4812.92 2039.03 0 0 -0.29 6051.58 0 0 1034.53 -1558.89 0z"></path>
        <path fill="white" d="M44656.54 23475.82l-3297.12 0 0 -905.03 3056.87 0 -255.72 -962.67 -2801.14 0 0 -905.25 2561.11 0 -271.24 -1020 -3475.2 0 0 4812.71 4753.21 0 -270.76 -1019.76zm-18813.26 -7.11l0 0c449.92,0 810.28,-125.62 1080.77,-377.37 270.76,-251.22 406.12,-585.3 406.12,-1001.71 0,-416.69 -135.36,-750.95 -406.12,-1002.31 -270.49,-251.43 -630.85,-377.27 -1080.77,-377.27l-1026.36 0 0 2758.66 1026.36 0zm42.75 -3785.84l0 0c790.3,0 1427.49,221.31 1911.03,664.37 483.54,443.39 725.46,1023.83 725.46,1742.39 0,718.27 -241.91,1298.95 -725.46,1741.94 -483.54,443.2 -1120.73,664.01 -1911.03,664.01l-2254.9 0 0 -4812.71 2254.9 0zm7216.48 2643.91l0 0c0,689.48 -195.07,1241.31 -585.59,1655.31 -390.77,414.55 -906.07,621.62 -1548.24,621.62 -655.93,0 -1184.22,-207.07 -1583.98,-621.62 -399.97,-414 -600.17,-965.83 -600.17,-1655.31l0 -2643.91 1185.55 0 0 2643.91c0,363.85 91.21,652.15 273.43,865.37 182.08,213.38 423.51,319.8 725.17,319.8 287.7,0 517.4,-106.41 690.08,-319.8 172.08,-213.21 258.25,-501.52 258.25,-865.37l0 -2643.91 987.52 0 -0.31 0 1214.1 0 840.55 3031.51 826.4 -3031.51 1127.4 0 826.47 3031.51 840.21 -3031.51 1221.45 0 -1372.18 4812.92 -1271.7 0 -804.28 -2974.09 -812.16 2974.09 -1264.32 0 -1173.65 -4118.05 0 1949.03z"></path>
        <path fill="#E32E20" d="M27288.74 6967.41l0 6967.51 7252.7 0c2356.5,0 4064.38,-441.35 5121.71,-1324.64 1057.78,-882.86 1586.82,-2197.6 1586.82,-3944.18 0,-1785.1 -524.53,-3090.12 -1571.74,-3915.56 -1047.52,-825.44 -2749.65,-1238.15 -5106.45,-1238.15l-10969.93 0 0 -3512.38 11060.11 0c1793.12,0 3339.02,158.37 4638.7,475.08 1299.22,316.71 2366.83,820.64 3203.07,1511.49 835.73,690.92 1455.18,1582.92 1858.4,2677.47 402.67,1094.05 604.65,2418.62 604.65,3973.27 0,3013.51 -836.52,5235.55 -2508.24,6665.11 -1672.03,1430.16 -4271.21,2144.82 -7796.58,2144.82l-11060.11 0 0 -10479.84 3686.89 0z"></path>
        <path fill="#E32E20" d="M21365.38 3507.13l0 -3507.13 -15472.24 0c-1772.93,0 -3198.13,407.71 -4275.86,1223.55 -790.59,598.08 -1287.84,1370.91 -1498.58,2283.58l21246.68 0z"></path>
        <path fill="#E32E20" d="M-0 6967.41l0 3512.43 17648.37 0 0 1784.78c0,537.59 -177.09,950.67 -529.28,1238.11 -352.45,288.09 -770.45,432.33 -1253.55,432.33l-15865.53 0 0 3512.28 15472.46 0c1772.69,0 3197.76,-407.85 4275.67,-1223.86 1077.66,-815.77 1617.26,-1923.95 1617.26,-3325.12l0 -5930.95 -21365.38 0z"></path>
    </g>
</svg>