<svg width="683" height="683" viewBox="0 0 683 683" fill="none" xmlns="http://www.w3.org/2000/svg">
<g clip-path="url(#clip0_24_107)">
<path d="M485.104 53.3333H376V37.3333C376 16.75 359.25 0 338.667 0H200C179.417 0 162.667 16.75 162.667 37.3333V53.3333H53.5625C24.026 53.3333 0 77.3594 0 106.896V629.104C0 658.641 24.026 682.667 53.5625 682.667H485.104C514.641 682.667 538.667 658.641 538.667 629.104V106.896C538.667 77.3594 514.641 53.3333 485.104 53.3333ZM80 562.667V133.333H458.667V549.333H144V477.333C144 469.969 138.031 464 130.667 464C123.302 464 117.333 469.969 117.333 477.333V562.667C117.333 570.031 123.302 576 130.667 576H157.708C152.203 591.521 137.38 602.667 120 602.667C97.9427 602.667 80 584.724 80 562.667ZM185.323 576H509.708C504.203 591.521 489.38 602.667 472 602.667H173.297C179.13 594.911 183.318 585.849 185.323 576ZM485.104 80C499.932 80 512 92.0677 512 106.896V549.333H485.333V120C485.333 112.635 479.365 106.667 472 106.667H376V80H485.104ZM189.333 37.3333C189.333 31.4531 194.12 26.6667 200 26.6667H338.667C344.547 26.6667 349.333 31.4531 349.333 37.3333V106.667H189.333V37.3333ZM485.104 656H53.5625C38.7344 656 26.6667 643.932 26.6667 629.104V106.896C26.6667 92.0677 38.7344 80 53.5625 80H162.667V106.667H66.6667C59.3021 106.667 53.3333 112.635 53.3333 120V562.667C53.3333 596.37 78.4792 624.297 110.99 628.708C112.266 629.115 113.62 629.333 115.026 629.333H472C486.995 629.333 500.849 624.354 512 615.964V629.104C512 643.932 499.932 656 485.104 656Z" fill="black"/>
<path d="M302.667 53.3333H236C228.636 53.3333 222.667 59.302 222.667 66.6666C222.667 74.0312 228.636 79.9999 236 79.9999H302.667C310.032 79.9999 316 74.0312 316 66.6666C316 59.302 310.032 53.3333 302.667 53.3333Z" fill="black"/>
<path d="M130.666 282.667H216C223.364 282.667 229.333 276.698 229.333 269.333C229.333 261.969 223.364 256 216 256H144V184C144 176.635 138.031 170.667 130.666 170.667C123.302 170.667 117.333 176.635 117.333 184V269.333C117.333 276.698 123.302 282.667 130.666 282.667Z" fill="black"/>
<path d="M280 218.667H408C415.365 218.667 421.334 212.698 421.334 205.333C421.334 197.969 415.365 192 408 192H280C272.636 192 266.667 197.969 266.667 205.333C266.667 212.698 272.636 218.667 280 218.667Z" fill="black"/>
<path d="M280 282.667H408C415.365 282.667 421.334 276.698 421.334 269.333C421.334 261.969 415.365 256 408 256H280C272.636 256 266.667 261.969 266.667 269.333C266.667 276.698 272.636 282.667 280 282.667Z" fill="black"/>
<path d="M185.609 233.865C188.214 236.469 191.625 237.771 195.036 237.771C198.448 237.771 201.859 236.469 204.464 233.865L238.891 199.437C244.094 194.234 244.094 185.792 238.891 180.583C233.682 175.375 225.24 175.375 220.031 180.583L195.036 205.578L187.5 198.042C182.292 192.838 173.849 192.838 168.641 198.042C163.437 203.25 163.437 211.693 168.641 216.901L185.609 233.865Z" fill="black"/>
<path d="M130.666 429.333H216C223.364 429.333 229.333 423.365 229.333 416C229.333 408.635 223.364 402.667 216 402.667H144V330.667C144 323.302 138.031 317.333 130.666 317.333C123.302 317.333 117.333 323.302 117.333 330.667V416C117.333 423.365 123.302 429.333 130.666 429.333Z" fill="black"/>
<path d="M280 365.333H408C415.365 365.333 421.334 359.365 421.334 352C421.334 344.635 415.365 338.667 408 338.667H280C272.636 338.667 266.667 344.635 266.667 352C266.667 359.365 272.636 365.333 280 365.333Z" fill="black"/>
<path d="M280 429.333H408C415.365 429.333 421.334 423.365 421.334 416C421.334 408.635 415.365 402.667 408 402.667H280C272.636 402.667 266.667 408.635 266.667 416C266.667 423.365 272.636 429.333 280 429.333Z" fill="black"/>
<path d="M220.031 327.25L195.036 352.245L187.5 344.708C182.292 339.505 173.849 339.505 168.641 344.708C163.437 349.917 163.437 358.359 168.641 363.568L185.604 380.531C188.208 383.135 191.625 384.438 195.036 384.438C198.448 384.438 201.859 383.135 204.464 380.531L238.885 346.104C244.094 340.901 244.094 332.458 238.885 327.25C233.682 322.042 225.24 322.042 220.031 327.25V327.25Z" fill="#CC0099"/>
<path d="M280 512H408C415.365 512 421.334 506.031 421.334 498.667C421.334 491.302 415.365 485.333 408 485.333H280C272.636 485.333 266.667 491.302 266.667 498.667C266.667 506.031 272.636 512 280 512Z" fill="black"/>
<path d="M220.031 473.917L195.036 498.912L187.5 491.375C182.292 486.172 173.849 486.172 168.641 491.375C163.437 496.583 163.437 505.026 168.641 510.234L185.604 527.198C188.208 529.802 191.625 531.104 195.036 531.104C198.448 531.104 201.859 529.802 204.464 527.198L238.885 492.771C244.094 487.568 244.094 479.125 238.885 473.917C233.682 468.708 225.24 468.708 220.031 473.917V473.917Z" fill="black"/>
<path d="M632 144C604.062 144 581.333 166.729 581.333 194.667V578.13C581.333 579.859 581.672 581.578 582.328 583.182L619.661 674.385C621.708 679.396 626.588 682.667 632 682.667C637.411 682.667 642.291 679.396 644.338 674.385L681.672 583.182C682.328 581.578 682.666 579.859 682.666 578.13V452.568C682.666 445.203 676.698 439.234 669.333 439.234C661.968 439.234 656 445.203 656 452.568V564.797H608V233.667H656V345.896C656 353.26 661.968 359.229 669.333 359.229C676.698 359.229 682.666 353.26 682.666 345.896V194.667C682.666 166.729 659.937 144 632 144ZM632 634.135L614.531 591.464H649.468L632 634.135ZM608 207V194.667C608 181.432 618.765 170.667 632 170.667C645.234 170.667 656 181.432 656 194.667V207H608Z" fill="#CC0099"/>
<path d="M669.333 385.896C665.828 385.896 662.385 387.318 659.906 389.802C657.427 392.281 656 395.719 656 399.229C656 402.745 657.427 406.172 659.906 408.651C662.385 411.146 665.828 412.562 669.333 412.562C672.839 412.562 676.281 411.146 678.76 408.651C681.24 406.172 682.667 402.745 682.667 399.229C682.667 395.719 681.24 392.281 678.76 389.802C676.281 387.318 672.839 385.896 669.333 385.896Z" fill="black"/>
</g>
<defs>
<clipPath id="clip0_24_107">
<rect width="682.667" height="682.667" fill="white"/>
</clipPath>
</defs>
</svg>
