<svg width="512" height="512" viewBox="0 0 512 512" fill="none" xmlns="http://www.w3.org/2000/svg">
<g clip-path="url(#clip0_24_37)">
<path d="M498.343 234.343L480 252.686V88C480 74.767 469.233 64 456 64H440C440 54.278 440 41.518 440 32C440 14.355 425.645 0 408 0C390.355 0 376 14.355 376 32V64H95.321C91.5 41.329 71.741 24 48 24C21.532 24 0 45.533 0 72V368C0 394.467 21.532 416 48 416H316.686L298.343 434.343C293.321 439.367 296.88 448 304 448H504C508.418 448 512 444.418 512 440V240C512 232.891 503.377 229.312 498.343 234.343ZM424 224H392V48H424V224ZM419.867 240L408 267.691L396.133 240H419.867ZM408 16C416.822 16 424 23.178 424 32H392C392 23.178 399.178 16 408 16ZM48 40C65.645 40 80 54.355 80 72V332.261C61.749 315.902 34.234 315.918 16 332.261V72C16 54.355 30.355 40 48 40ZM48 400C30.355 400 16 385.645 16 368C16 350.355 30.355 336 48 336C65.645 336 80 350.355 80 368C80 372.418 83.582 376 88 376C92.418 376 96 372.418 96 368V80H376V231.994C375.996 234.847 375.501 232.477 400.646 291.151C403.409 297.598 412.586 297.607 415.353 291.151C445.275 221.333 438.452 237.629 439.354 235.149C440.307 232.93 440 242.602 440 80H456C460.411 80 464 83.589 464 88V268.686L332.686 400H48ZM496 432H323.313L359.999 395.314C362.478 397.793 364.165 400 367.999 400C375.059 400 378.714 391.401 373.656 386.343L371.314 384L384 371.314C386.479 373.793 388.166 376 392 376C399.06 376 402.715 367.401 397.657 362.343L395.314 360L408 347.314C410.479 349.793 412.166 352 416 352C423.06 352 426.715 343.401 421.657 338.343L419.314 336L432 323.314C434.479 325.793 436.166 328 440 328C447.06 328 450.715 319.401 445.657 314.343L443.314 312L456 299.314C458.479 301.793 460.166 304 464 304C471.06 304 474.715 295.401 469.657 290.343L467.314 288L496 259.314V432Z" fill="black"/>
<path d="M343.972 207.454C343.867 205.899 343.336 204.442 342.353 203.151C341.784 202.407 347.493 208.178 261.657 122.343C258.532 119.219 253.468 119.219 250.343 122.343C163.752 208.934 169.758 202.668 168.907 204.308C167.612 206.792 168 197.81 168 336C168 340.418 171.582 344 176 344H336C340.418 344 344 340.418 344 336C344 238.896 344.015 208.084 343.972 207.454V207.454ZM256 139.314L316.687 200H195.313L256 139.314ZM232 328V280H280V328H232ZM328 328H296V272C296 267.582 292.418 264 288 264H224C219.582 264 216 267.582 216 272V328H184V216H328V328Z" fill="#CC0099"/>
<path d="M466.343 330.343L394.343 402.343C389.321 407.367 392.88 416 400 416H472C476.418 416 480 412.418 480 408V336C480 328.897 471.378 325.307 466.343 330.343ZM464 400H419.313L464 355.313V400Z" fill="black"/>
<path d="M216 432H152C129.944 432 112 449.944 112 472C112 494.056 129.944 512 152 512H216C238.056 512 256 494.056 256 472C256 449.944 238.056 432 216 432ZM144 449.371V494.629C122.728 487.087 122.709 456.92 144 449.371ZM160 448H208V496H160V448ZM224 494.629V449.371C245.272 456.913 245.291 487.08 224 494.629Z" fill="#CC0099"/>
</g>
<defs>
<clipPath id="clip0_24_37">
<rect width="512" height="512" fill="white"/>
</clipPath>
</defs>
</svg>
